<?xml version="1.0" encoding="utf-8"?>
<!-- Generator: Adobe Illustrator 26.3.1, SVG Export Plug-In . SVG Version: 6.00 Build 0)  -->
<svg version="1.1" id="Слой_1" xmlns="http://www.w3.org/2000/svg" xmlns:xlink="http://www.w3.org/1999/xlink" x="0px" y="0px"
	 viewBox="0 0 1920 1080" style="enable-background:new 0 0 1920 1080;" xml:space="preserve">
<style type="text/css">
	.st0{fill:#F6F6F6;stroke:#1D1D1B;stroke-width:2.3607;stroke-miterlimit:10;}
	.st1{fill:none;stroke:#1D1D1B;stroke-width:5;stroke-miterlimit:10;}
	.st2{fill:#9DBFC6;stroke:#1D1D1B;stroke-width:2.3607;stroke-miterlimit:10;}
	.st3{fill:#E0AE9D;stroke:#1D1D1B;stroke-width:2.3607;stroke-miterlimit:10;}
	.st4{fill:#9DB3D3;stroke:#1D1D1B;stroke-width:2.3607;stroke-miterlimit:10;}
	.st5{fill:#BEC79E;stroke:#1D1D1B;stroke-width:2.3607;stroke-miterlimit:10;}
	.st6{fill:#CFBB9E;stroke:#1D1D1B;stroke-width:2.3607;stroke-miterlimit:10;}
	.st7{fill:#8C96B6;stroke:#1D1D1B;stroke-width:2.3607;stroke-miterlimit:10;}
	.st8{fill:#9DE0A0;stroke:#1D1D1B;stroke-width:2.3607;stroke-miterlimit:10;}
	.st9{fill:#9DD5AD;stroke:#1D1D1B;stroke-width:2.3607;stroke-miterlimit:10;}
	.st10{fill:#AED49F;stroke:#1D1D1B;stroke-width:2.3607;stroke-miterlimit:10;}
	.st11{fill:#9DCAB9;stroke:#1D1D1B;stroke-width:2.3607;stroke-miterlimit:10;}
</style>
<g>
	<path class="st0" d="M668.3,839.275l7.55,4.26l-6.61,11.82l-1.18,6.15l-10.88,2.83l-3.78,2.37v8.99l-6.87,3.06
		c0,0,4.97,1.2,5.44,2.38c0.47,1.18,2.14,4.48,2.14,4.48h-6.15l-4.03,11.12l1.42,4.49l0.27,0.26l-0.6,0.81l-0.32,5.1l-3.51,8.72
		l-8.34,7.99l-7.8,7.3l-5.7,5.1l-17.89,3.99l-7.76-0.58l-8.66-3.41l1.22-23.48l-6.56,0.84l-13.78-0.92l-8.94-6.54l-7.9-7.79
		l-6.99-8.39l-5.89-6.84l-3.11-5.89l0.99-4.61l4.01-6.47l-1.16-5.4l-5.44-5.66l-0.82,3.67l-2.03,10.52l-12.01,1.93l-1.24-2.84
		l-10.87,0.37l-11.57,3.04l-9.33-0.66l-6.78-5.21l-4.27-8.85l-1.65,2.03l-8.01,5.97c0,0-7.8-7.74-8.51-8.95
		c-0.71-1.2-3.42-5.48-4.12-6.58c-0.69-1.1-5.96-14.11-5.96-14.11l-0.72-11.43l-2.15-7.17l-3.04,1.25l-7.95,4.97l-5.96-0.28
		l-8.68-2.43l-3.83,1.54l-0.25,7.32l-0.01,8.56c0,0,2.63,7.22,3.06,10.46c0.44,3.23-0.86,11.61-0.86,11.61l-1.63,8.03l-9.67,9.57
		l-14.58,1.16l-6.45,1.51c0,0-5.56,6.55-6.64,7.21c-1.06,0.67-6.29,2.29-6.29,2.29l-5.85-1.94l-1.8-10.23l6.21-3.13l-1.98-6.1
		l-1.41-3.53l-8.21-3.91l-5.54-4.15l-1.13-6.65l-4.72-4.03l-0.82-7.27l0.5-4.57l-6.15-6.22l-14.15-5.99l-6.9-7.62l-4.72-2.78
		l-6.17,2.78l-4.89-4.81l-2.44-8.24l-19.64-22.28l-3.06-8.5l1.1-5.83l-3.18-6.82l0.62-8.3l3.49-10.34l-0.25-6.68l-1.26-3.8
		l2.46-3.61l-2.46-5.67l-7.35,1.12l-4.57-3.66l-2.51-6.21l-7.16-1.53l-3.21-5.99l-3.21-4.95l-5.2-4.29l-0.85-5.11l-0.44-9.31
		l-2.39-6.46l0.69-4.13l5.03-4.14l-3.24-1.71l-6.44,0.48l-6.71,4.52l-11.69-2.42l-3.13,5.35l-11.14,5.11l-8.01,7.05l-8.24,4.55
		l-12.22,7.38l-8.35,1.66l-2.36-1.66l-9.99,1.13l-4.87,4.35l-12.35-4.35l-5.44-2.83l-15.18-0.72l-8.25,3.95l-6.42,1.8l-3.84,4.14
		l-9.65,5.75l-9.63,2.06l-10.77,5.39l-7.06,4.8l-7.28,5.4l-4.86,5.74l-4.92,8.96l-10.19-0.22c0,0-6.99-3.52-8.81-5.08
		c-1.81-1.57-1.92-5.34-1.92-5.34l-1.95-9.46l3.91-7.4l-8.55,0.33l-6.18-0.33l-3.07-5.84L0,700.055v-320.41l4.89-4.46l7.12,1.71
		l3.91,2.87l-1.54,3.76l3.84,4.68l5.07,8l0.85-3.68l0.53-7.46l1.25-6.77l7.09-3.4l3.8,0.91l5.74,7.84l5.69-0.55l1.71,3.08l3.45,2.03
		l0.39,10.19l5.24-3.95l8.4-0.59l5.46-5.09l4.25-5.92l14.51-9.97l7.27-9.05l13.38-1.45l6.53-0.24l9.84,0.84l13.9-3.19l4.83-4.15
		l5.36-5.71l3.96-7.9l9.69-0.77l1.46-3.25l6.36-1.46l3.61,10.46l5.85-1.01l-0.5-9.38l-1.33-7.97l1.28-2.47l6.17-11.05l-0.21-8.53
		l-3.44-10.9l12.43,3.21l2.84,6.6l13,5.64l3.79-7.75l9.97,2.62l2.61-3.3l7.62-6.85l10.3-10.73l5.72,8.09l11.38-0.41l10.43-2.86
		l3.19,1.48l12.06-2.68l8.14,3.25l-3.87,1.5l3.66,6l13.62,1.16l12.8-0.28l20.98-16.67l16.94-12.56l9.95,8.83l23.23-1.68l8.97,14.98
		l-2.79,9.04l5.96,2.86l8.01-4.2l16.48,17.2l10.81-1.32l7.73,14.44l15.4-4.72l1.18,0.6l3.73,2.66l2.83,3.91l3.91,10.45l2.66,0.36
		l3.9-2.13l10.11-8.68l9.57,1.41l-2.66,7.27h4.25l0.9,5.67l4.78,12.42h-4.78v1.17l3.72,3.62l11.88,1.24l4.69,0.69l-0.02,0.13
		l-4.78-0.7l0.87,8.86h-4.25l-1.59,2.3l2.65,6.03l-7.27-1.41l-1.06,2.48l-15.78-2.48h-6.21l-0.35,5.14l-3.73-0.7l-1.07,8.72h6.21
		l-1.06,12.01l-1.59-1.06l-1.79,1.77l-1.77,7.45l12.95,6.74l3.72-2.48l1.43-6.91l1.06,6.56l5.86-1.77l2.12,2.48h5.5l-5.5,9.57
		l4.44-1.06l2.83,1.06l3.01,9.61l9.76,6.88l4.25-0.71l4.09-1.59l2.65,8.15l6.92-4.6l4.26,2.3v-3.19l6.39-2.3l-2.14-14.55l3.73-0.71
		l0.88,4.26l2.66,0.89v-3.56l8.35-5.13l11.52,0.89l2.3-2.13v12.05h6.21l-1.07,2.3l3.56,3.38l2.76,0.88v11.41l-13.72,6.34l8.28,11.59
		l1.66,7.8l9.22,1.18l-2.61,1.65l-4.01,6.15l1.65,4.03l-5.2,2.12l-2.37-2.6l-2.36,4.49l-3.79-2.13l-3.3-5.67l-8.04-2.6l-1.19,3.79
		l-11.11,1.42l4.97,2.59l-1.18,5.68l2.13,2.83l-1.66,2.85l-5.91-4.26l0.24,8.04h3.06v6.14l-7.56,4.02l-1.18,12.3l0.94,3.55
		l12.07,3.54l4.01-4.5h7.58l2.36,3.56l2.36-1.89l3.07,1.18l0.95,3.55l-1.66,1.89l-11.34-1.65l-2.38,2.65l3.08,5.39l-6.85,15.36
		l7.33,2.13l2.36-3.31l2.37,1.66v3.07l8.98-1.42l4.49,5.31l-4.49,1.78l5.92,3.79l2.83-4.5l21.99,4.27l-7.33,6.61v10.17h6.86
		l1.89,1.42l5.44-0.71v4.01l6.38-2.83l2.13,4.73l14.72,8.35l-6.87,3.88l-9.94-6.38l-1.89,4.02l9.38,4.72v4.5l-1.81,1.19l3.3,3.54
		l-1.49,8.98l-2.76,9.93l2.76,7.33l9.28-6.31v10.47h-12.62l-0.94,2.13l-5.2,1.89h-2.13l-2.13,1.54l2.6,2.24l-0.47,3.79l-7.08-1.43
		l-4.74,4.5l2.13,2.13l-9.22,6.61l3.3,7.82h1.42l1.18,4.25l5.93-1.18v4.73l1.41,3.54l-3.08,3.07l7.33,13.24h6.86l2.6,5.68
		l-7.05,5.68l-8.07,2.12l-3.32,11.36l1.18,4.01l10.21,2.14l4.69,1.65l4.73,1.65l-3.79,5.44h-2.12l0.23,8.28l5.68,4.48l4.01-2.12
		l-1.89,14.66h-2.36l0.95,4.73l-3.56,1.42l-1.41,8.74h6.15l4.02,4.27l-2.13,7.56l4.49,3.79l4.49,10.16l10.65-3.55l2.83,3.55
		l9.39-2.12l0.02,0.02l-9.46,2.13v4.49h-10.17v3.55l5.07,1.9l-3.66,8.03h4.5l1.42,4.25l2.84,1.43L668.3,839.275z"/>
	<path class="st0" d="M540.82,152.965v2.48l-8.86,5.15l-1.47,4.4l-0.04-0.08l-8.68,10.29l-18.28,1.42l-6.38-1.77l-4.25-0.71
		l1.24-2.32l-9.94-4.07l-1.95,3.55l-11.16-3.55h-2.85l0.18,15.25l-8.16-3.2l-9.39-2.3l-1.42,6.92l-5.5,7.62l3.54,6.21l7.11,1.95
		l2.12,3.91l1.06,4.25l4.25,4.97v3.19h2.32l-1.07,3.37v4.61h4.96l4.97,5.86l-0.18,1.59l3.37,2.66l0.17,3.73l3.03,0.88l-5.5,7.63
		l-0.18,3.89l7.09,3.56l-3.36,7.8l2.65,0.88l-1.41,1.42l2.12,4.62l-0.88,1.94l-2.13-1.94l-0.54,3l-2.48-1.06l-3.19,1.24l5.32,10.47
		h-3.19l1.95,3.54v1.77l-1.95,2.49l4.44,7.81l14.7-4.97v3.01l-1.06,3.9v4.26h-10.28l-2.12,9.05l2.3,4.43h5.67l1.24,4.08l-1.32,1.85
		l-2.22,3.12l-2.13,0.7l-1.77-2.66l-13.13,2.13l-1.18-0.6l-15.4,4.72l-7.73-14.44l-10.81,1.32l-16.48-17.2l-8.01,4.2l-5.96-2.86
		l2.79-9.04l-8.97-14.98l-23.23,1.68l-9.95-8.83l-16.94,12.56l-20.98,16.67l-12.8,0.28l-13.62-1.16l-3.66-6l3.87-1.5l-8.14-3.25
		l-12.06,2.68l-3.19-1.48l-10.43,2.86l-11.38,0.41l-5.72-8.09l-10.3,10.73l-7.62,6.85l-2.61,3.3l-9.97-2.62l-3.79,7.75l-13-5.64
		l-2.84-6.6l-12.43-3.21l3.44,10.9l0.21,8.53l-6.17,11.05l-1.28,2.47l1.33,7.97l0.5,9.38l-5.85,1.01l-3.61-10.46l-6.36,1.46
		l-1.46,3.25l-9.69,0.77l-3.96,7.9l-5.36,5.71l-4.83,4.15l-13.9,3.19l-9.84-0.84l-6.53,0.24l-13.38,1.45l-7.27,9.05l-14.51,9.97
		l-4.25,5.92l-5.46,5.09l-8.4,0.59l-5.24,3.95l-0.39-10.19l-3.45-2.03l-1.71-3.08l-5.69,0.55l-5.74-7.84l-3.8-0.91l-7.09,3.4
		l-1.25,6.77l-0.53,7.46l-0.85,3.68l-5.07-8l-3.84-4.68l1.54-3.76l-3.91-2.87l-7.12-1.71L0,379.645V1.795h165.92l7.39,3.85
		c0,0,10.18,4.18,11.77,3.42c1.59-0.74,12.11,4.91,12.11,4.91l2.23-4.32l6.26-0.59l7.06,1.3v4.97c0,0,1.86,2.42,2.54,2.89
		c0.7,0.49,5.71,0.64,5.71,0.64l1.58-2.45l4.45-3.38l2.04,6.04l3.55,0.16l10.05-0.16l7.53,1.61l0.66,3.72l-2.88,2.51l-5.31,5.12v3.4
		l4.68,4.76l4.21,6.87l9.3,0.58l11.55,2.67l2.76,9.84l3.95,8l6.31,5.42l9.93,3.68l7.35-4.17l4.71-5.47l5.1-7.39l2.81-7.1l7.01-0.71
		h6.55l8.61,4.19l4.41,4.35l5.63,2.75l9.65,4.03l3.25-3.47l3.83-5.96l3.69-3.58h6.4l4.5,10.28l4.83,2.01l5.55,5.43l-0.46,7.37
		l3.21,6.41l0.25,4.03l-1.61,7.48l2.89,1.14l14.45,3.22h10.85l8.64-2.8l16.46-1.86l12.91-5.3l7.86,2.58l5.86-4.53l3.7,4.53
		l4.82-2.95l4.2-10.02l6.56-6.84l3.83-9.9l5.85,4.43v14.89l4.26-0.17v-7.63l7.09,2.3l8.52-0.88l6.39-1.42l5.13,9.06l-6.56,1.22
		l-1.77,5.15h3.37l0.92,5.5l-8.37,8.33l1.6,1.77v2.67l1.41,2.66l1.24,1.77l1.24,1.25h2.88l-3.05,9.04l-2.31,1.24
		c0,0-1.77,3.01-2.12,3.72c-0.35,0.71-4.62,1.96-4.62,1.96l-1.86,8.15l4.17,1.95v2.48l6.91,7.27l-0.71,2.67l3.73,2.65l6.2-0.35
		l-0.35-2.83L540.82,152.965z"/>
	<path class="st0" d="M368.74,32.475l-7.14,12.78l6.86,9.47h-0.51l-3.69,3.58l-3.83,5.96l-3.25,3.47l-9.65-4.03l-5.63-2.75
		l-4.41-4.35l-8.61-4.19h-6.55l-7.01,0.71l-2.81,7.1l-5.1,7.39l-4.71,5.47l-7.35,4.17l-9.93-3.68l-6.31-5.42l-3.95-8l-2.76-9.84
		l-11.55-2.67l-9.3-0.58l-4.21-6.87l-4.68-4.76v-3.4l5.31-5.12l2.88-2.51l-0.66-3.72l-7.53-1.61l-10.05,0.16l-3.55-0.16l-2.04-6.04
		l-4.45,3.38l-1.58,2.45c0,0-5.01-0.15-5.71-0.64c-0.68-0.47-2.54-2.89-2.54-2.89v-4.97l-7.06-1.3l-6.26,0.59l-2.23,4.32
		c0,0-10.52-5.65-12.11-4.91c-1.59,0.76-11.77-3.42-11.77-3.42l-7.39-3.85h204.32l0.86,12.75L368.74,32.475z"/>
	<path class="st0" d="M1118.39,1.795l1.83,7.09l-5.71-1.59l-7.33,2.36l-2.78,6.58c0,0,1.79,4.26,1.7,4.9c-0.09,0.65,0,3.08,0,3.08
		l-1.7,7.82l-2.79-3.09l-3.93,4.23l-2.47,8.83l-4.05,12.2l7.24,1.42l0.83,2.71c0,0-5.51,8.9-5.53,9.33c-0.03,0.42,0.02,3.11,0,3.68
		c0,0.57,3.98,1.4,3.98,1.4l5.26,0.25l-0.22,6.09l-7.36,3.45c0,0-2.35-1.7-2.59-2.08c-0.25-0.38-0.76,2.36-0.76,2.36l-13.73,7.5
		l-8.52,4.83l4.3,5.69l-2.29,1.73v5.83l-2.01,2.02l-1.29,6.95l-10.32-1.4l-3.56,2.83l-12.05-5.94l-5.63,3l-5.55,2.94l-11.34-5.67
		l1.06-6.2l-5.68,1.06l0.71,3.19l-11.53,0.89l-5.54-3.99v-0.62l-4.95-3.91l-6.74,2.49l-3.73,7.45l-2.3-3.54l-5.86,0.16l-3.36-2.3
		l-3.02-6.38l-6.57-3.01l-10.63,0.53l-4.26,5.14c0,0-4.43-4.08-5.14-4.43c-0.72-0.36-2.67-6.21-2.67-6.21l1.6-3.72v-1.78l-14.71,1.6
		l1.95,6.92l-11.53,8.51l-22.35-10.65l-5.66,0.72l-0.9-4.44l-8.16,7.98l1.77,4.61l-3.89,1.07l-1.24,4.07l-3.55,1.77l-3.72,2.32
		l-2.85-2.67l-3.72,2.67l-3.19-2.85l-2.48,0.89c0,0-3.19-6.55-3.9-6.55c-0.72,0-3.91,5.66-3.91,5.66l-61.35-22.7l-1.96,3.2
		l-3.54-1.59l-2.31,1.59l-3.01-1.24l0.05-0.1l3,1.22l2.3-1.59l3.56,1.59l1.94-3.18l-3.54-1.06v-3.56l1.24-2.3l1.42-4.97l0.53-5.13
		l5.68-1.08l-5.68-9.39l2.13-1.77l-6.38-11.54l-2.31,2.85l-3.01-4.79l-8.87,0.88l-7.09-6.38l-1.42,2.31l-7.98,0.71v-7.27
		l-10.29-3.03l-3.01,3.03v-2.14l-5.5-0.18v2.13l-8.69,5.14l2.3,2.85l-6.03-0.89v-2.66l-8.51-4.61l-8.86,3.01l6.74,7.45l-2.3,0.89
		v2.65l-7.64,0.36l-8.69-0.17l-3.54,6.92l1.06,6.73l1.42,3.9v5.86l-6.21,3.36l-15.6-2.83v-3.55l-5.68-9.75l-6.56-7.63l-3.37-7.8
		l-7.62-9.4v-3.9l-6.39-4.08l-2.12,1.77l-9.04-1.77l-5.86,3.37l-6.92,10.82l7.81,4.96l-7.28,6.03c0,0-5.21-2.27-5.85-3.09l0.53,0.79
		l-0.03,0.02l-0.52-0.76c-0.02-0.02-0.02-0.03-0.03-0.04l-1.74-2.55l-3.38-0.89l-4.07-8.33l1.06-6.21l-2.83-7.8l-9.58,4.96l1.07,7.8
		l-9.06,6.21h-2.12v2.84h-1.42l-6.56-7.09l-6.74,1.24l-4.62-3.2l-1.59,3.55h-3.72l-8.16,4.43l-3.9,4.97l-7.98,1.24l-3.73,3.55H519.9
		l0.89,5.86h-19.34l-6.74,2.83l-1.06,3.55l-3.83,9.9l-6.56,6.84l-4.2,10.02l-4.82,2.95l-3.7-4.53l-5.86,4.53l-7.86-2.58l-12.91,5.3
		l-16.46,1.86l-8.64,2.8h-10.85l-14.45-3.22l-2.89-1.14l1.61-7.48l-0.25-4.03l-3.21-6.41l0.46-7.37l-5.55-5.43l-4.83-2.01
		l-4.5-10.28h-5.89l-6.86-9.47l7.14-12.78l2.36-17.93l-0.86-12.75H1118.39z"/>
	<polygon class="st0" points="1137.21,4.345 1135.05,7.295 1131.83,7.295 1129.03,1.795 1136.37,1.795 	"/>
	<path class="st0" d="M1118.39,1.795l1.83,7.09l-5.71-1.59l-7.33,2.36l-2.78,6.58c0,0,1.79,4.26,1.7,4.9c-0.09,0.65,0,3.08,0,3.08
		l-1.7,7.82l-2.79-3.09l-3.93,4.23l-2.47,8.83l-4.05,12.2l7.24,1.42l0.83,2.71c0,0-5.51,8.9-5.53,9.33c-0.03,0.42,0.02,3.11,0,3.68
		c0,0.57,3.98,1.4,3.98,1.4l5.26,0.25l-0.22,6.09l-7.36,3.45c0,0-2.35-1.7-2.59-2.08c-0.25-0.38-0.76,2.36-0.76,2.36l-13.73,7.5
		l-8.52,4.83l4.3,5.69l-2.29,1.73v5.83l-2.01,2.02l-1.29,6.95l1.37,0.19l5.86,2.49l4.29,2.3l1.38-2.49l9.4,0.9l6.74,11.52l3.55,0.89
		c0,0-0.53,4.61,0.71,5.85c1.24,1.24,3.01-6.03,3.01-6.03l2.66-3.19l5.85-1.06l2.67,4.43l3.89-1.6l11.71,12.07l5.33-2.5l-0.9,5.68
		l0.9,8.16l-9.06,12.24l3.38,4.08l-15.25,30.15h11.87v-3.91c0,0,2.85-0.53,3.38-0.35c0.53,0.18,2.3,2.84,2.3,2.84l5.32-1.6
		l3.55,4.44h3.55l-1.96,5.85l3.02-0.9v3.91l7.27-1.59l-2.12-2.48l7.62-3.91l0.89,7.69l14.21,1.59v-5.67l42.8-0.94l-2.61-7.1
		l-0.71-14.89l6.62,2.12v-5.2l6.63-0.95l3.08,2.14l-1.2,5.43l10.65,1.42v1.88c0,0,15.13,4.27,15.84,4.5c0.71,0.24,3.55-1.8,3.55-1.8
		l3.07,1.57l-2.59-13.72l5.19,0.96v2.83l5.91-0.47l0.95,8.83l7.56,1.57l12.54,3.78l4.73,4.49l1.89,5.91l2.36,3.31l5.68-1.18
		c0,0-1.65-2.6,0-2.6c1.65,0,6.15,0.24,6.15,0.24v3.54l4.72-2.36l4.73,1.41l3.07,12.3l12.07-4.72l1.89,1.89l-0.95,2.83h4.73v-2.12
		l8.04,2.12v-2.59l4.03,1.65l-1.67,4.01l1.67,2.85h-5.68v7.56l8.27-0.94l2.84,0.94l1.66-2.59l4.72,2.59l2.38,3.78l2.12,1.9
		l1.89-2.61l5.35,5.76l0.1,0.12h8.41l1.88,1.33l1.67-0.66c0,0,0.94-6.67,2.12-6.43c1.18,0.24,12.77,6.15,12.77,6.15l4.49,11.83
		h11.36v-5.21l-2.14-5.44v-5.9l-4.01-8.75l4.72-3.31l-5.2-8.04l2.84-4.26l12.77,9.21h6.38v-4.72l5.92,0.71v2.36l1.18-2.12l5.44,4.25
		l-1.19,3.55l4.02,0.71l2.6,3.55l4.97,2.95l4.26-2.24v5.66l-3.55,4.03l-6.39-0.94l0.94,8.74l1.89,1.65l-1.65,3.56l0.71,2.12
		l-3.54,7.57h5.91l0.71-1.65l0.24-3.09l10.87,12.78l4.49-1.89v3.54l2.6,3.55l-1.49,9.81l-0.16,1.06l-4.43,4.67l0.07-0.02l4.5-4.73
		l0.17-1.05l1.48-9.82l-2.59-3.55v-6.14l4.48,3.78l12.06-13.25l14.66-1.89l0.06,0.22l1.67-13.4l4.47-12.41l13.3-8.84l9.51-8.52
		l10.71-8.01l4.74-5.53l1.83-12.99l7.35-10.83l3.71-9.75l-1.07-15.77l3.27-11.27l1.16-9.71l5.48-7.67h13.1l4.23-1.78l-3.19-5.52
		l-4.56-4.65l1.34-9.15l-3.73-4.76l1.08-16.51c0,0,1.97-8.51,2.65-10.05c0.67-1.52,0.88-13.6,3.32-13.51
		c2.45,0.09,15.55-5.22,15.55-5.22l9.82-4.06l1.57-9.26l3.35-5.87l2.43-7.14l5.78-9.13l3.68-10.64l-1.98-7.3h-490.43l0.84,2.55
		l-2.16,2.95h-3.22l-2.8-5.5"/>
	<path class="st0" d="M1626.8,1.795H1920v41.57c-1.14,0.03-2.3,0.06-3.44,0.08c-0.5,0.01-0.99,0.02-1.48,0.03
		c-0.83,0.03-1.63,0.05-2.41,0.06c-0.36,0.01-0.72,0.01-1.07,0.02h-0.08c-0.49,0.02-0.97,0.03-1.44,0.03c-0.25,0-0.5,0.01-0.73,0.01
		c-0.835,0.01-1.61,0.015-2.309,0.012c-0.701-0.003-1.325-0.012-1.851-0.032c-0.8-0.03-1.38-0.08-1.68-0.16
		c-2.55-0.67-12.09-13.71-12.09-13.71l-21.58-11.48l-9.17,10.63v14.78l-22.96,13.43l-9.85,17.99l-7.93-6.84h-9.36l-15.54,3.55
		c0,0-19.86-15.72-22.18-17.44c-2.32-1.72-9.52-12.97-9.52-12.97l-21.22-0.6l-18.54,10.82c0,0-13.84-11.67-17.73-12.52
		c-3.87-0.85-10.37,11.22-10.37,11.22l-14.94-2.3l-5.1-15.79l-20.2-10.26h-23.88l-1.2,21.71l-18.18,7.5l1.57-9.26l3.35-5.87
		l2.43-7.14l5.78-9.13l3.68-10.64L1626.8,1.795z"/>
	<path class="st0" d="M1920,43.365v398.94l-0.85,0.42l-0.49-15.35h-9.81c0,0-20.09-9.15-23.58-9.84c-3.5-0.7,0.1,8.06-0.6,11.65
		c-0.7,3.59-11.58,7.99-11.58,7.99l-14.72-6.07l-6.4-18.94l-7.57,2.83l-12.37,2.54l-16.05-5.37c0,0-3.14,3.23-5.07,5.37
		c-1.94,2.13-15.46,21.11-15.46,21.11s-5.27-5.12-6.24-5.79c-0.96-0.66-5.83,7.47-7.28,9.87c-1.45,2.38-10.45,4.97-16.67,3.09
		c-6.22-1.89,2.36-7.17,2.36-7.17l-0.83-14.94l-10.63,5.48l-21.24,1.92l-13.92-3.73c0,0-2.21,10.12-4.32,15.35
		c-2.11,5.21-9.15,3.09-9.15,3.09l-15-0.66l-15.05,6.4l-20.59,6.33l-13.3-8.56l-12.24-19.19l-20.01-16.93l2.96-1.53l2.13-4.48
		l-17.5-12.77l-4.49-5.21l-0.94-5.44l-2.37-6.14l1.9-6.86l3.3-14.42l-2.6-2.61l-3.79,4.26l-10.39-17.02h-0.07l-8.28-17.73v-4.49
		l-29.56-17.03h-3.31l-11.58-2.6l-2.37-9.69l-2.13-1.42v-2.61l-1.18-4.01l-2.12,1.65l-3.32-7.09h-5.44l-0.66-2.53l-3.3-12.38v-0.01
		l1.67-13.4l4.47-12.41l13.3-8.84l9.51-8.52l10.71-8.01l4.74-5.53l1.83-12.99l7.35-10.83l3.71-9.75l-1.07-15.77l3.27-11.27
		l1.16-9.71l5.48-7.67h13.1l4.23-1.78l-3.19-5.52l-4.56-4.65l1.34-9.15l-3.73-4.76l1.08-16.51c0,0,1.97-8.51,2.65-10.05
		c0.67-1.52,0.88-13.6,3.32-13.51c2.45,0.09,15.55-5.22,15.55-5.22l9.82-4.06l18.18-7.5l1.2-21.71h23.88l20.2,10.26l5.1,15.79
		l14.94,2.3c0,0,6.5-12.07,10.37-11.22c3.89,0.85,17.73,12.52,17.73,12.52l18.54-10.82l21.22,0.6c0,0,7.2,11.25,9.52,12.97
		c2.32,1.72,22.18,17.44,22.18,17.44l15.54-3.55h9.36l7.93,6.84l9.85-17.99l22.96-13.43v-14.78l9.17-10.63l21.58,11.48
		c0,0,9.54,13.04,12.09,13.71c0.3,0.08,0.88,0.13,1.68,0.16c0.53,0.02,1.15,0.03,1.85,0.03s1.48,0,2.31-0.01
		c0.23,0,0.48-0.01,0.73-0.01c0.47,0,0.95-0.01,1.44-0.03h0.08c0.35-0.01,0.71-0.01,1.07-0.02c0.78-0.01,1.58-0.03,2.41-0.06
		c0.49-0.01,0.98-0.02,1.48-0.03C1917.7,43.425,1918.86,43.395,1920,43.365z"/>
	<path class="st0" d="M1920,442.305v635.9h-570.11l2.02-7.38l8.84-39.33l5.61-2.91l6.16-5.48l0.3-10.87l7.71-21.07l2.36-18.14
		l-2.75-8.97l-9.48-7.16l-13.59-9.77c0,0-6.2-12.35-7.29-13.86c-1.11-1.51-5.14-6.5-5.14-6.5l-12.07-7.58l-10.07-7.03l-2.27-9.64
		c0,0-8.72-2.99-10.77-3.83c-2.07-0.84-9.1,2.54-9.1,2.54l-11.69-4.95l-8.77-9.97l-11.85,2.5l-8.29-6.78l-0.48-9.53l2.76-14.17
		l-9.76-4.28l-15.35-4.65l-5.84-7.18l-10.52-16.09l-10.67-13.67l4.73-2.12l-4.73-10.41l10.17-5.43l27.43-45.88c0,0,0,0-0.47-1.66
		c-0.48-1.65-3.78-20.1-3.78-20.1l-10.65-17.49l-8.74-14.42l18.67-25.06l13.95-3.32l-4.73-13.48h-17.73l-5.44-9.93l-0.38,0.29
		l-10.09-17.66l-10.41-17.73l-15.14-14.19l-25.05-10.64l19.15-8.28v-16.02l0.06,0.02v16.07l26.73-8.27l9.92-7.1l8.28,4.74l1.18-8.28
		l-1.18-11.77l2.37-4.54v-4.73l1.65-4.72l3.55-2.14l3.78-5.68c0,0,8.04-9.93,13.48-4.25c5.44,5.67,6.39-2.61,6.39-2.61l20.32-9.45
		l16.09-1.42l3.31-3.31l3.55-2.13l7.33,2.13l5.19-4.02l4.97-1.89l-2.83-3.08l6.15-4.01v-10.18l4.96-13.71l4.49-10.87l4.02-5.21
		l5.44-8.51l4.26-3.79l-8.04-19.38l2.36-7.33l0.07,0.05l-2.37,7.33l8.04,19.39l16.09-9.46l6.13,0.94l3.32,8.04l11.11,2.13
		l13.95,9.93l22.46,5.44l12.77-1.65l16.08,3.07l32.17-9.46l2.83,6.39l30.03,1.89l10.88-4.26l12.52-24.83l6.86-5.67l10.88-5.92
		l7.81,7.58l26.72-4.5l5.19,4.5l5.21-4.97h3.79l4.36-2.26l20.01,16.93l12.24,19.19l13.3,8.56l20.59-6.33l15.05-6.4l15,0.66
		c0,0,7.04,2.12,9.15-3.09c2.11-5.23,4.32-15.35,4.32-15.35l13.92,3.73l21.24-1.92l10.63-5.48l0.83,14.94c0,0-8.58,5.28-2.36,7.17
		c6.22,1.88,15.22-0.71,16.67-3.09c1.45-2.4,6.32-10.53,7.28-9.87c0.97,0.67,6.24,5.79,6.24,5.79s13.52-18.98,15.46-21.11
		c1.93-2.14,5.07-5.37,5.07-5.37l16.05,5.37l12.37-2.54l7.57-2.83l6.4,18.94l14.72,6.07c0,0,10.88-4.4,11.58-7.99
		c0.7-3.59-2.9-12.35,0.6-11.65c3.49,0.69,23.58,9.84,23.58,9.84h9.81l0.49,15.35L1920,442.305z"/>
	<path class="st0" d="M1382.89,973.025l-2.36,18.14l-7.71,21.07l-0.3,10.87l-6.16,5.48l-5.61,2.91l-8.84,39.33l-2.02,7.38H861.4
		v-10.35l5.17-13.35l16.96-9.57l2.26-5.01l-4.51-16.9l6.15-10.87l14.9,7.33l14.18,0.7l6.4,4.38l-0.72-0.6l0.08-0.07l0.69,0.58h0.01
		l15.36,12.65l7.56,1.42l14.66,4.48l14.9-2.12l5.43,4.03l3.32-1.67l7.56-15.84l6.62-4.48h9.69l2.61-3.09l-7.56-1.18l7.56-10.39
		l34.52,4.48l1.66-7.8l3.31,0.47v-5.67l31.91,1.66l19.63-24.37l6.39-12.28h6.62l1.63-3.5l-5.88-2.65l-4.97,3.3l-7.8-6.62l0.03-0.15
		l7.7,6.52l4.97-3.3l5.89,2.66l1.44,0.64l-1.18-23.64l11.34-29.79l28.38-24.84l27.67-2.83l3.31-8.51l4.96-2.61l3.54-8.04
		c0,0,9.7-3.06,10.65-3.54c0.94-0.47,2.6-13.48,2.6-13.48l-3.55-6.38l-7.33-5.92l-12.53-7.56l3.08-4.25l-0.04-0.05l12.28-14.87
		l8.99,7.09l10.67,13.67l10.52,16.09l5.84,7.18l15.35,4.65l9.76,4.28l-2.76,14.17l0.48,9.53l8.29,6.78l11.85-2.5l8.77,9.97
		l11.69,4.95c0,0,7.03-3.38,9.1-2.54c2.05,0.84,10.77,3.83,10.77,3.83l2.27,9.64l10.07,7.03l12.07,7.58c0,0,4.03,4.99,5.14,6.5
		c1.09,1.51,7.29,13.86,7.29,13.86l13.59,9.77l9.48,7.16L1382.89,973.025z"/>
	<path class="st0" d="M885.79,1039.925l-2.26,5.01l-16.96,9.57l-5.17,13.35v10.35H0v-378.15l6.35,7.46l3.07,5.84l6.18,0.33
		l8.55-0.33l-3.91,7.4l1.95,9.46c0,0,0.11,3.77,1.92,5.34c1.82,1.56,8.81,5.08,8.81,5.08l10.19,0.22l4.92-8.96l4.86-5.74l7.28-5.4
		l7.06-4.8l10.77-5.39l9.63-2.06l9.65-5.75l3.84-4.14l6.42-1.8l8.25-3.95l15.18,0.72l5.44,2.83l12.35,4.35l4.87-4.35l9.99-1.13
		l2.36,1.66l8.35-1.66l12.22-7.38l8.24-4.55l8.01-7.05l11.14-5.11l3.13-5.35l11.69,2.42l6.71-4.52l6.44-0.48l3.24,1.71l-5.03,4.14
		l-0.69,4.13l2.39,6.46l0.44,9.31l0.85,5.11l5.2,4.29l3.21,4.95l3.21,5.99l7.16,1.53l2.51,6.21l4.57,3.66l7.35-1.12l2.46,5.67
		l-2.46,3.61l1.26,3.8l0.25,6.68l-3.49,10.34l-0.62,8.3l3.18,6.82l-1.1,5.83l3.06,8.5l19.64,22.28l2.44,8.24l4.89,4.81l6.17-2.78
		l4.72,2.78l6.9,7.62l14.15,5.99l6.15,6.22l-0.5,4.57l0.82,7.27l4.72,4.03l1.13,6.65l5.54,4.15l8.21,3.91l1.41,3.53l1.98,6.1
		l-6.21,3.13l1.8,10.23l5.85,1.94c0,0,5.23-1.62,6.29-2.29c1.08-0.66,6.64-7.21,6.64-7.21l6.45-1.51l14.58-1.16l9.67-9.57l1.63-8.03
		c0,0,1.3-8.38,0.86-11.61c-0.43-3.24-3.06-10.46-3.06-10.46l0.01-8.56l0.25-7.32l3.83-1.54l8.68,2.43l5.96,0.28l7.95-4.97
		l3.04-1.25l2.15,7.17l0.72,11.43c0,0,5.27,13.01,5.96,14.11c0.7,1.1,3.41,5.38,4.12,6.58c0.71,1.21,8.51,8.95,8.51,8.95l8.01-5.97
		l1.65-2.03l4.27,8.85l6.78,5.21l9.33,0.66l11.57-3.04l10.87-0.37l1.24,2.84l12.01-1.93l2.03-10.52l0.82-3.67l5.44,5.66l1.16,5.4
		l-4.01,6.47l-0.99,4.61l3.11,5.89l5.89,6.84l6.99,8.39l7.9,7.79l8.94,6.54l13.78,0.92l6.56-0.84l-1.22,23.48l8.66,3.41l7.76,0.58
		l17.89-3.99l5.7-5.1l7.8-7.3l8.34-7.99l3.51-8.72l0.32-5.1l0.6-0.81l4.21,3.97l0.02,0.03l-0.06,0.02l4.26,11.83v15.37l3.3,3.07
		l1.89,9.45l3.55,3.55h2.85l1.42,4.5l23.4,8.75l10.79-5.92v-0.01l3.87-2.11l9.69,1.41l8.99,4.5l6.85,4.02l19.16,3.54l-5.91,5.67
		l7.33,19.4l1.9,14.19l5.19,8.03c0,0,4.5,0.48,5.68,1.18c1.18,0.71,4.26,4.03,4.26,4.03h7.92c0,0,3.42,3.3,4.37,4.01
		c0.94,0.72,13.95,16.56,13.95,16.56l8.99-2.13l12.06,4.02l13.48-5.44l3.06-10.16l26.73-1.66l2.12,3.07l20.34-5.2L885.79,1039.925z"
		/>
</g>
<rect y="3.59" class="st1" width="1920" height="1076.41"/>
<g>
	<polygon class="st2" points="1227.186,642.402 1219.289,648.268 1219.289,649.047 1219.218,649.106 1219.218,655.362 
		1211.865,655.362 1212.833,651.467 1212.703,651.467 1212.903,650.629 1209.834,650.629 1203.921,658.903 1204.062,659.458 
		1203.85,659.741 1204.605,662.739 1183.583,666.941 1172.948,676.868 1164.674,676.868 1160.413,673.327 1145.281,668.842 
		1141.456,670.388 1140.217,670.884 1136.534,672.383 1134.409,678.296 1110.047,679.949 1084.043,674.744 1076.796,659.422 
		1075.769,657.251 1061.817,649.685 1058.737,645.659 1051.406,642.827 1038.163,658.903 1037.974,659.104 1022.452,648.835 
		1025.38,646.533 1028.696,631.165 1032.237,629.276 1023.255,622.182 1027.492,619.113 1034.787,623.091 1034.787,625.7 
		1034.846,625.688 1034.846,625.723 1038.859,625.015 1048.798,611.311 1053.755,613.2 1058.925,612.031 1060.554,616.705 
		1060.59,616.682 1060.613,616.741 1071.26,609.174 1067.471,599.248 1067.542,599.2 1073.621,594.75 1077.41,594.278 
		1077.41,592.39 1091.598,580.09 1091.598,576.549 1098.68,563.542 1113.34,563.306 1119.431,568.464 1119.443,568.464 
		1119.49,568.511 1121.579,567.59 1123.22,573.905 1123.267,573.894 1123.279,573.941 1140.772,571.108 1146.39,573.905 
		1146.449,573.941 1149.754,570.423 1153.779,566.139 1153.425,560.272 1153.425,560.26 1153.307,558.372 1153.319,558.372 
		1153.307,558.348 1153.307,558.336 1151.666,552.47 1154.405,552.317 1156.329,552.222 1160.602,551.998 1161.758,556.176 
		1161.806,556.176 1161.829,556.247 1171.91,555.881 1174.837,555.775 1185.649,557.888 1185.649,573.905 1166.492,582.18 
		1191.551,592.826 1206.683,607.014 1217.094,624.743 	"/>
	<polygon class="st3" points="1615.418,406.152 1613.282,410.638 1610.331,412.16 1605.964,414.427 1602.175,414.427 
		1596.969,419.396 1591.776,414.899 1565.052,419.396 1557.25,411.818 1546.367,417.732 1539.509,423.409 1526.986,448.232 
		1516.103,452.493 1486.074,450.605 1483.241,444.219 1451.077,453.674 1435,450.605 1422.229,452.257 1399.766,446.816 
		1385.814,436.889 1374.707,434.753 1371.391,426.714 1365.253,425.77 1349.164,435.237 1341.126,415.843 1343.499,408.513 
		1343.428,408.466 1334.044,401.183 1334.044,399.377 1342.342,399.377 1342.377,399.295 1342.554,399.295 1345.151,391.964 
		1345.151,388.187 1350.357,382.746 1351.513,381.979 1360.213,390.312 1360.213,390.241 1360.283,390.312 1360.283,386.995 
		1367.07,386.299 1367.082,386.299 1369.431,389.132 1369.195,394.809 1367.07,397.406 1373.22,404.972 1373.279,404.948 
		1373.291,404.972 1378.732,403.556 1380.149,401.431 1384.563,401.891 1385.992,405.208 1386.062,405.208 1404.665,406.625 
		1404.736,406.625 1406.164,400.239 1409.87,399.778 1413.895,406.152 1413.943,406.129 1413.966,406.152 1416.799,404.972 
		1416.563,390.784 1416.492,390.82 1416.492,390.784 1412.054,392.885 1408.053,384.871 1425.947,382.286 1427.363,393.617 
		1434.221,398.586 1438.01,411.122 1438.081,411.11 1438.081,411.122 1444.632,409.705 1444.656,409.705 1447.701,410.886 
		1444.632,421.285 1454.866,421.285 1454.866,418.216 1461.181,415.406 1461.181,421.285 1470.01,421.285 1471.19,400.475 
		1479.464,400.475 1488.447,395.517 1490.572,384.882 1497.925,385.862 1501.124,386.287 1501.136,386.299 1513.435,387.951 
		1513.435,387.939 1513.506,387.951 1513.742,378.249 1515.395,378.249 1515.395,377.104 1520.352,378.154 1520.293,378.249 
		1520.376,378.237 1520.364,378.249 1520.576,378.202 1520.588,378.202 1537.16,374.472 1533.371,371.155 1538.341,365.477 
		1538.341,355.361 1556.235,365.477 1556.259,365.454 1556.306,365.477 1567.897,352.717 1565.761,352.717 1565.997,339.946 
		1578.532,339.946 1588.931,356.967 1592.72,352.706 1595.317,355.314 1592.012,369.738 1590.111,376.596 1592.484,382.734 
		1593.428,388.176 1597.914,393.381 	"/>
	<polygon class="st4" points="1567.826,352.717 1556.259,365.454 1538.341,355.314 1538.341,355.361 1538.258,355.314 
		1538.258,365.477 1533.301,371.155 1537.078,374.472 1520.541,378.19 1520.411,378.166 1521.792,375.652 1515.395,373.527 
		1515.395,373.539 1515.335,373.527 1515.335,378.249 1513.671,378.249 1513.435,387.939 1501.124,386.287 1497.913,385.85 
		1490.572,384.871 1490.572,384.882 1490.501,384.871 1488.376,395.517 1479.394,400.475 1471.107,400.475 1469.927,421.285 
		1461.251,421.285 1461.251,415.371 1461.181,415.406 1461.181,415.371 1454.795,418.216 1454.795,421.285 1444.703,421.285 
		1447.772,410.886 1444.703,409.705 1444.632,409.705 1438.081,411.11 1434.304,398.586 1427.434,393.617 1426.018,382.274 
		1425.947,382.286 1425.947,382.274 1407.982,384.871 1411.995,392.909 1412.054,392.885 1412.066,392.909 1416.492,390.82 
		1416.728,404.972 1413.943,406.129 1409.941,399.767 1409.87,399.778 1409.87,399.767 1406.081,400.239 1404.665,406.625 
		1386.062,405.208 1384.646,401.891 1380.149,401.419 1380.149,401.431 1380.078,401.419 1378.661,403.556 1373.279,404.948 
		1367.141,397.406 1369.278,394.809 1369.514,389.132 1367.141,386.287 1367.082,386.299 1367.07,386.299 1367.07,386.287 
		1360.213,386.995 1360.213,390.241 1351.56,381.955 1351.513,381.979 1351.49,381.955 1357.002,378.331 1359.363,378.331 
		1368.109,375.026 1370.246,376.443 1373.551,374.79 1373.551,379.748 1373.692,379.453 1373.692,379.665 1376.49,373.61 
		1385.85,373.61 1385.826,373.527 1385.992,373.527 1384.8,369.502 1385.744,368.416 1387.797,366.056 1391.527,367.46 
		1391.646,367.366 1391.669,367.378 1396.627,363.825 1394.266,356.731 1398.468,349.955 1407.132,349.955 1407.144,349.873 
		1407.273,349.873 1409.634,335.956 1412.101,335.059 1412.125,335.024 1412.231,334.977 1413.234,332.958 1413.317,332.805 
		1414.367,330.727 1414.84,327.174 1411.759,325.994 1411.594,325.286 1411.051,322.925 1409.398,310.437 1415.406,308.82 
		1415.442,308.761 1415.548,308.737 1418.747,303.933 1419.892,307.167 1427.068,305.739 1427.162,305.668 1427.198,305.656 
		1430.68,303.06 1428.083,299.507 1431.081,296.048 1435.036,295.812 1435.094,295.73 1435.165,295.73 1437.207,293.015 
		1443.546,297.701 1448.987,298.409 1457.734,299.589 1457.781,299.495 1457.864,299.507 1458.773,297.925 1462.562,297.465 
		1470.258,296.521 1470.328,296.45 1470.399,296.438 1474.896,291.705 1475.062,290.654 1476.549,280.834 1473.952,277.281 
		1473.952,271.143 1478.437,274.92 1490.501,261.676 1505.161,259.788 1505.22,260 1505.22,260.012 1508.513,272.394 
		1509.174,274.92 1514.616,274.92 1517.932,282.014 1520.057,280.361 1521.237,284.375 1521.237,286.983 1523.362,288.4 
		1525.734,298.09 1537.314,300.699 1540.631,300.699 1570.187,317.72 1570.187,322.217 1578.461,339.946 1565.926,339.946 
		1565.69,352.717 	"/>
	<path class="st5" d="M1476.407,280.916l-1.487,9.809l-0.165,1.062l-4.426,4.662l-7.602,0.932h-0.012l-3.895,0.472l-0.047,0.071
		l-0.094,0.012l-0.897,1.558l-8.664-1.169l-5.43-0.708l-6.386-4.721l-0.094,0.118l-0.047-0.035l-2.066,2.75l-3.942,0.236
		l-0.071,0.083h-0.071l-3.069,3.541l2.597,3.553l-3.376,2.526l-7.129,1.416l-1.18-3.317l-0.106,0.165l-0.035-0.083l-3.27,4.91
		l-6.044,1.629v0.047l-0.141,0.035l1.652,12.535l0.555,2.349l0.165,0.72l3.069,1.18l-0.472,3.553l-1.039,2.077l-0.036,0.059
		l-1.027,2.077l-2.491,0.897v0.035l-0.142,0.059l-2.349,13.857h-8.629l-0.047,0.083h-0.082l-4.261,6.858l2.361,7.094l-4.839,3.458
		l-3.765-1.416l-0.083,0.106l-0.059-0.024l-2.054,2.384l-1.015,1.169l1.157,3.942h-9.301l-0.035,0.083h-0.095l-2.703,5.843v-4.745
		l-3.317,1.653l-2.125-1.416l-8.747,3.305h-2.361l-0.13,0.083h-0.012l-5.654,3.706l-1.204,0.791l-5.205,5.441v3.777l-2.561,7.247
		h-8.333v0.083h-0.213v1.759h-3.175l-1.652-3.317l-12.772-2.361l-0.118,0.142h-0.024l-4.839,5.536l-4.946-1.9l-12.063,4.261
		l-14.424-10.635l-6.728,0.366l-6.279,0.342l2.609-11.119l-11.332-7.543l4.568-3.187l-0.035-0.024l0.177-0.118l-18.685-9.467
		l-7.566-0.472l-0.13,0.142l-2.703,2.703l-11.591-0.236l-26.487-7.566l-10.399-22.132l1.959-4.592v-2.597l-3.092-0.46l1.109-3.789
		v-4.733l-0.106-0.024v-0.083l-11.981-2.998h-0.012l-0.177-0.047l0.673-3.777l0.968-5.371l6.622-0.472l-0.13-0.106h-0.012
		l-1.039-0.85l-0.012-0.012v-2.809h-0.106v-0.106h-1.357l-3.73-7.46v-4.261l-0.118-0.106l-2.125-1.877l-1.31-1.098l1.417-9.691
		l-0.13,0.024l0.024-0.13l7.035-4.013l5.5-0.708l0.035-0.118h0.047l5.276-15.593l2.986,1.003l1.109,0.519l14.896-0.944l5.442,3.305
		l0.236,3.553l-2.325,3.942l-3.73,3.506l0.012,0.012l-0.106,0.106l3.435,4.344l-4.521-0.449l-0.035,0.13l-0.071-0.012l-1.18,4.533
		l-2.125,4.934l10.411,6.374l10.635,2.373l2.597,2.597l5.205-1.416l13.48,4.332h11.343l2.844-2.679h6.834l-3.671,3.671h0.024
		l-0.118,0.118l18.921,3.069l0.047-0.13l0.047,0.012l1.594-4.037l10.364,6.28l0.036-0.153l0.071,0.035l0.685-3.659l7.259-0.236
		l0.012-0.118h0.071l1.428-6.858l-5.914-4.025l3.742-15.439l3.73,3.506l3.305-2.845l6.858,16.324l8.05,7.165h3.777l0.944,6.067
		l6.622,4.969l0.047-0.153l0.047,0.035l3.033-8.416l7.035-2.502l3.789,3.706l0.094-0.118l18.343-20.692l0.106-0.118l-4.721-8.015
		l15.026-13.857v-0.024l0.094-0.094v-13.716l-0.696-0.744h8.404l1.889,1.334l1.664-0.661c0,0,0.944-6.669,2.125-6.433
		c1.18,0.236,12.772,6.15,12.772,6.15l4.485,11.827h11.355v-5.205l-2.136-5.441v-5.902l-4.013-8.747l4.721-3.317l-5.193-8.038
		l2.833-4.261l12.772,9.219h6.386v-4.721l5.914,0.708v2.361l1.18-2.125l5.442,4.249l-1.192,3.553l4.025,0.708l2.597,3.553
		l4.969,2.951l4.261-2.243v5.666l-3.553,4.025l-6.386-0.944l0.944,8.747l1.889,1.653l-1.652,3.553l0.708,2.125l-3.541,7.566h5.914
		l0.708-1.653l0.236-3.081l10.871,12.772l4.497-1.889v3.541L1476.407,280.916z"/>
	<path class="st6" d="M1378.52,260.319l-15.038,13.857l0.012,0.024l-0.106,0.094l4.721,8.038l-18.343,20.692l-3.777-3.706
		l-7.106,2.526l-0.035,0.094l-0.047,0.024l-3.034,8.357l-6.575-4.934l-0.944-6.067h-3.789l-8.038-7.177l-6.858-16.313l-3.305,2.845
		l-3.789-3.553l-0.036,0.165l-0.047-0.047l-3.789,15.604l5.914,4.025l-1.405,6.74l-7.247,0.236l-0.024,0.118h-0.083l-0.673,3.624
		l-10.34-6.268l-0.059,0.142l-0.036-0.024l-1.605,4.049l-18.85-3.057l3.671-3.671h-0.024l0.118-0.118h-6.858l-2.833,2.679h-11.355
		l-13.48-4.332l-5.206,1.416l-2.597-2.597l-10.647-2.373l-10.399-6.374l2.136-4.934l1.145-4.403l4.662,0.46l-0.106-0.142
		l0.201,0.024l-3.529-4.474l3.671-3.447l0.047-0.071l0.047-0.047l2.361-4.013l-0.236-3.553l-5.43-3.305l-14.896,0.944l-1.204-0.401
		l-2.915-1.369l-5.394,15.958l-5.441,0.708l-7.035,4.013l-6.598,1.416v-3.317h-0.024v-0.224l-1.251,0.024l-11.733,0.437l0.33-3.565
		l0.567-4.167l1.416-11.343l-0.885-10.647l3.364,2.007l7.259,1.003l0.012,0.012l3.577,4.78l0.012-0.012l0.142,0.189l8.333-16.667
		l-0.153-0.177l-2.325-2.668l5.146-6.386l-0.271-0.024l0.118-0.142l-9.762-1.133l-8.204,2.337l-2.101-18.355l14.212,1.594v-5.666
		l42.8-0.944l-2.609-7.094l-0.708-14.896l6.622,2.125v-5.205l6.622-0.944l3.081,2.136l-1.192,5.43l10.647,1.416v1.889
		c0,0,15.132,4.261,15.84,4.497c0.708,0.236,3.553-1.806,3.553-1.806l3.069,1.57l-2.597-13.716l5.194,0.956v2.833l5.914-0.472
		l0.944,8.829l7.566,1.57l12.536,3.789l4.733,4.485l1.889,5.914l2.361,3.305l5.677-1.18c0,0-1.653-2.597,0-2.597
		c1.652,0,6.15,0.236,6.15,0.236v3.541l4.721-2.361l4.733,1.416l3.069,12.299l12.063-4.721l1.889,1.889l-0.944,2.833h4.733v-2.125
		l8.038,2.125v-2.597l4.025,1.653l-1.664,4.013l1.664,2.845h-5.677v7.566l8.274-0.944l2.833,0.944l1.664-2.597l4.721,2.597
		l2.373,3.777l2.125,1.9l1.889-2.609l5.347,5.76l0.106,0.118h-0.201l0.803,0.862V260.319z"/>
	<path class="st7" d="M1185.106,318.357v4.651l-1.145,3.883l-3.694,0.236l-23.407,22.238l0.059,0.177l-0.083,0.071l2.113,7.236
		v0.012l-1.145,4.78l0.024,0.024l-0.047,0.224l2.514,2.054l-2.019,2.904l0.083,0.094l0.012,0.012l-0.106,0.142l1.653,1.889
		l0.012,3.211v0.177l-3.435,0.295v-3.907l-4.957-4.249l-2.491,0.708l-3.541-1.771l-3.553-2.668h-4.958l-0.083,0.094h-0.106
		l-3.458,3.978l-24.02-4.072l0.012,0.13l-0.189-0.035l0.708,7.979l2.833,0.708v11.615h-3.364l-0.036,0.083h-0.141l-2.077,5.512
		l-6.61-4.178h-7.802v-6.386l-4.969-4.958l-4.615-5.678l-1.771-6.917v-10.187l-2.479-2.408l-4.261-0.354l-1.771-4.603l-0.13,0.189
		l-0.047-0.106l-3.069,4.426l-4.556-8.416l-24.835,7.448l-25.177-9.927v0.153l-0.177-0.071v3.411l-8.687-2.077l0.035,0.13
		l-0.212-0.047l1.416,5.678l-3.695,6.657l-1.275,3.624v3.824h-6.563l0.047,0.083h-0.224l2.432,4.521h-4.379l-0.13,0.094h-0.047
		l-4.792,3.541l2.302,3.199l-4.603,5.312l4.332,9.337h-13.633l-5.323-3.187l-10.281,3.187c0,0-7.448-10.281-11.001-12.76
		c-3.541-2.491-17.375-6.74-19.511-9.23c-2.125-2.479-12.76-4.603-12.76-4.603h-2.845l-12.217-6.02l2.101-2.007v-4.249l1.275-4.025
		h4.391l2.373-7.094l-3.081-7.802l4.733-16.313h-4.969l4.957-9.655l6.362,1.133l0.271,0.012l3.518,0.236v-0.012l0.26,0.012v-14.896
		l4.261-3.081v-4.721l2.904-1.121l3.919,3.246v3.069l0.271-0.153v0.165l4.261-2.373l1.889-4.013l13.48-6.386l1.18-4.025l2.833-5.442
		h3.045l7.566,3.069l0.154-0.035h0.012l0.106,0.047l8.51-1.653l2.361-4.733l-2.833-4.025l2.833-3.777h3.553l3.069-1.889h2.361
		l4.025-0.944l-2.361-4.025c0,0,2.585-2.597,4.875-2.691h0.012c0.012-0.012,0.012-0.012,0.024,0c0.614,0.024,1.192,0.26,1.676,0.791
		c0.649,0.72,1.275,0.98,1.83,0.98h0.035c0.012,0,0.012,0,0.024,0c1.57,0.177,2.679-1.782,2.679-1.782l-3.116-1.558l3.069-4.415
		l5.17,1.818l0.035-0.083l0.236,0.083l2.361-6.15l7.342-1.924l0.047-0.094l1.334-0.342l4.485,3.777l0.106-0.071l0.024,0.024
		l2.502-1.83l20.774,3.765v2.373l14.908,2.361v5.914l14.412-1.9l0.012-0.024l0.13-0.024l1.18-2.974l3.883,1.841v5.205l-0.012,0.012
		c-0.035,0.012-0.071,0.035-0.13,0.059c-0.059,0.035-0.142,0.071-0.236,0.106c-0.472,0.224-1.228,0.59-1.924,0.98
		c-1.121,0.602-2.148,1.322-1.676,1.676c0.909,0.72,2.089,7.33,2.089,7.33l7.566,8.522l0.106-0.094l0.024,0.035l5.146-4.438h5.123
		l5.677,10.635l8.274,1.664l3.789,3.541l9.455,2.125l2.231-0.46l3.447-0.72l18.532,4.297l0.862,0.201l1.889-5.205l11.745-0.212
		l1.239-0.024v3.329l0.024-0.012v0.236l6.48-1.405v0.012l-1.393,9.561l0.106,0.094v0.012l1.417,1.192l2.019,1.771v4.261l3.789,7.566
		h0.059l0.047,0.106h1.31v2.727l0.106,0.083v0.024l1.05,0.838l-6.598,0.472l-1.653,9.219l0.13,0.035l-0.012,0.083l0.307,0.071
		L1185.106,318.357z"/>
	<path class="st8" d="M1174.707,234.091l2.325,2.668l-8.322,16.655l-3.588-4.769l-0.012-0.012l-0.13-0.165l-7.283-1.015
		l-3.364-2.007l0.885,10.647l-1.417,11.343l-0.413,4.344l-0.319,2.396l-2.632,6.126l-18.532-4.297l-3.447,0.72l-1.617,0.331
		l-0.614,0.13l-9.455-2.125l-3.789-3.541l-8.274-1.664l-5.678-10.635h-5.193l-0.059,0.047h-0.071l-5.099,4.403l-7.542-8.475
		c0,0-1.18-6.622-2.089-7.33c-0.449-0.342,0.484-1.027,1.546-1.629c0.696-0.39,1.452-0.755,1.924-0.98
		c0.094-0.035,0.177-0.071,0.236-0.106c0.059-0.024,0.094-0.047,0.13-0.059l0.012-0.012c0.083-0.024,0.13-0.047,0.13-0.047v-5.205
		l-3.978-1.889l-0.035,0.094l-0.094-0.047l-1.216,3.045l-14.306,1.877v-5.914l-14.884-2.373v-2.361l-20.833-3.777l-0.083,0.059
		l-0.047-0.012l-2.479,1.818l-4.462-3.765l-1.452,0.378l0.165-0.319l-0.944-4.497l1.889-3.541l4.45-1.169l4.167,3.246l0.036-0.035
		l0.106,0.083l1.18-1.416l-4.497-4.969v-4.721l2.113,0.236l4.745-7.094l-0.142-0.047l0.012-0.012l-10.411-3.317l-8.274-2.361v2.361
		l-9.75-0.224v-5.394l1.605-4.249l3.789-1.18l-5.394-8.038l2.077-5.441l-0.153,0.012l0.024-0.071l-13.598,1.405l-1.133-2.809
		l3.872-5.807v-3.541l-0.142-0.106v-0.071l-3.411-2.526l-0.508-0.366l2.55-6.374l2.042-5.099l-0.189-0.059l0.047-0.118l-7.188-2.231
		l4.497-3.978l-1.959-4.084l3.907-9.042l3.364-1.062v-21.896l5.536,3.99l11.532-0.897l-0.708-3.187l5.678-1.062l-1.062,6.209
		l11.343,5.666l5.548-2.939l5.63-2.998l12.051,5.937l3.553-2.833l10.328,1.405l1.369,0.189l5.854,2.491l4.297,2.302l1.381-2.491
		l9.396,0.897l6.74,11.52l3.553,0.885c0,0-0.531,4.615,0.708,5.855s3.01-6.032,3.01-6.032l2.656-3.187l5.854-1.062l2.668,4.426
		l3.895-1.593l11.709,12.063l5.323-2.491l-0.897,5.678l0.897,8.156l-9.053,12.24l3.376,4.084l-15.25,30.146h11.874v-3.907
		c0,0,2.845-0.531,3.376-0.354c0.531,0.177,2.302,2.845,2.302,2.845l5.323-1.605l3.541,4.438h3.553l-1.959,5.855l3.022-0.897v3.907
		l7.271-1.593l-2.125-2.479l7.625-3.907l0.885,7.684l-0.142-0.012l2.113,18.402l0.13-0.035l0.024,0.212l8.333-2.373l9.49,1.098
		l-5.028,6.232L1174.707,234.091z"/>
	<path class="st5" d="M1025.498,214.297l4.497,4.957l-1.145,1.393l-4.155-3.222l-0.047,0.012l-0.094-0.071l-4.485,1.18l-1.889,3.553
		l0.944,4.485l-0.236,0.437l0.201-0.059l-0.012,0.024l-0.319,0.083l-7.342,1.936l-2.325,6.067l-5.158-1.806l-0.047,0.071
		l-0.224-0.083l-3.116,4.497l3.116,1.558c0,0-0.991,1.735-2.408,1.782c-0.012,0-0.012,0-0.024,0h-0.035
		c-0.484-0.083-1.015-0.354-1.558-0.968c-0.567-0.614-1.239-0.838-1.948-0.803c-0.012-0.012-0.012-0.012-0.024,0h-0.012
		c-2.349-0.118-5.146,2.691-5.146,2.691l2.361,4.013l-4.013,0.944h-2.373l-3.069,1.9h-3.553l-2.833,3.777l2.833,4.025l-2.361,4.721
		l-8.345,1.617h-0.012l-7.448-3.034h-3.588l-2.833,5.442l-1.18,4.013l-13.48,6.386l-1.889,4.025l-3.99,2.207v-2.915l-4.025-3.305
		l-0.165,0.059l-0.094-0.071l-3.081,1.18v4.733l-4.249,3.069v14.896l-3.518-0.224l-6.622-1.18l-0.012,0.035l-0.26-0.047
		l-4.958,9.703h4.958l-4.721,16.313l3.069,7.802l-2.361,7.094h-4.403l-1.275,4.013v4.261l-2.007,1.912l-11.367-5.595l-19.511-24.469
		c0,0-5.017,2.62-9.573,4.426l-0.012-0.024l0.047-0.024l-1.275-4.356v-8.652l0.626-5.536l0.012-0.13h-8.451l-2.833-7.33h-8.51
		v-4.025l-17.257-3.541l-1.664,2.125l-10.352-5.89l1.027-1.948l0.012-0.035l0.189,0.047l3.636-6.929l4.084-1.594l0.685,2.054
		l0.165-0.083l0.035,0.094l8.274-4.025v-3.541l11.119-3.081l-2.136-7.094l2.136-3.069l-0.472-6.138l9.018,0.921l0.012-0.012
		l0.189,0.024l6.622-3.305h4.013l8.994-1.428l1.889-2.597l-7.33-10.635l16.077-11.119l-5.914-7.33l0.472-7.094l-1.18-1.653
		l1.652-1.652h2.609l0.236-3.081l-1.889-1.652h-0.189l-0.012-0.012h-0.991l0.472-4.249l2.255-3.14l3.706,2.077v-14.424l41.136-5.678
		l2.125,4.025h7.814l2.597-3.081l4.721,0.484l9.939-2.373v5.205h7.33l7.33,1.889l6.622-9.455l2.361,3.777l10.883,1.192v-2.373
		l5.194-2.597l0.614,1.534l-0.035,0.059l1.18,2.951l0.118-0.012l0.024,0.071l13.551-1.405l-2.066,5.371l5.394,8.038l-3.777,1.18
		l-1.617,4.261v5.43l0.13,0.012h0.012v0.047l9.891,0.236v-2.361l8.274,2.361l10.257,3.27l-4.745,7.082l-2.113-0.236V214.297z"/>
	<path class="st2" d="M998.031,106.412v0.626l-0.13-0.094v21.813l-3.376,1.062l-3.895,9.042l1.948,4.084l-4.615,4.072l0.26,0.083
		l-0.118,0.106l7.259,2.243l-2.042,5.123l-2.514,6.28l0.153,0.13l-0.023,0.059l0.425,0.307l3.517,2.597v3.47l-3.824,5.748
		l-0.649-1.617l-5.194,2.609v2.361l-10.883-1.18l-2.361-3.789l-6.622,9.467l-7.33-1.9h-7.33v-5.194l-9.927,2.361l-4.733-0.472
		l-2.597,3.069h-7.814l-2.125-4.013l-41.136,5.678v14.424l-3.635-2.054l0.047-0.071l-4.851-3.907l-15.073,4.615l-0.083,0.083
		l-0.118,0.035l-6.728,7.094l3.152,8.251l-6.504,1.027l-0.531-5.489l-9.939-11.886l-0.047,0.295l-0.153-0.177l-0.484,2.809
		l-4.639-2.573l0.72-6.209l5.123-2.727v-0.012l0.189-0.094l5.973-15.451l6.952,1.735v-0.165l0.201,0.047v-3.907l-2.833-1.239
		l0.413-1.747l0.295-1.263l-6.74-0.177v-5.678l-1.239-0.177v-2.302l-9.762,0.708v0.094l-0.189,0.024v5.017h-4.592v0.118h-0.201
		v2.195h-7.602l-2.491-1.239l-9.219,0.177v0.106l-0.201,0.012v2.042l-4.237,0.85l-1.771-1.416l-2.715,1.44l-2.963,1.57l0.012,0.012
		l-0.201,0.106l2.373,2.207l-7.141,0.696l2.302-3.907l-0.897-0.826l-1.405-1.298l2.833-4.792l4.615-6.917l-0.142-0.047l4.958-20.338
		l-5.855-2.833l3.506-9.289l0.035-0.118l-18.98-3.364l-2.833-1.959l-4.781-1.593h-6.74l-5.501-2.479H749.34l4.497-4.32v-0.071
		l0.047-0.047l-0.354-4.391l2.609-4.001l1.771,2.125l0.047-0.106l2.266-5.748l3.895,3.187l-0.071-0.201l0.118,0.094l-1.912-5.052
		l15.321-4.757l-1.346,2.361l0.012,0.012l-0.059,0.106l3.01,1.239l2.313-1.593l3.541,1.593l1.959-3.199l61.355,22.698
		c0,0,3.187-5.666,3.907-5.666c0.708,0,3.895,6.551,3.895,6.551l2.479-0.885l3.199,2.845l3.718-2.668l2.845,2.668l3.718-2.314
		l3.553-1.771l1.239-4.072l3.895-1.074l-1.771-4.603l8.156-7.979l0.897,4.438l5.666-0.72l22.344,10.647l11.532-8.51l-1.948-6.917
		l14.707-1.605v1.782l-1.594,3.718c0,0,1.948,5.855,2.668,6.209c0.708,0.354,5.135,4.438,5.135,4.438l4.261-5.146l10.635-0.531
		l6.563,3.01l3.022,6.386l3.364,2.302l5.855-0.165l2.302,3.541l3.73-7.448l6.74-2.491L998.031,106.412z"/>
	<path class="st9" d="M864.85,233.973l7.33,10.635l-1.888,2.609l-8.983,1.416h-4.025l-6.61,3.293l-9.03-0.921v0.012l-0.201-0.024
		l0.472,6.15l-2.125,3.081l2.125,7.082l-11.107,3.081v3.541l-8.121,3.942l-0.673-2.042l-0.177,0.071l-0.024-0.071l-4.249,1.653
		l-3.635,6.893l-0.047-0.012l0.047-0.083l-10.541-2.443v4.261l-17.375,2.113l-1.121-3.034l-0.118,0.047l-0.071-0.189l-5.418,2.231
		l-3.848-3.399l-0.035,0.012l-0.153-0.142l-5.489,1.251v-1.357h-0.189v-0.13l-8.51,0.236l-6.079,1.287l-2.254-3.045h-0.071
		l-0.106-0.142h-3.01l-1.534-1.747h-0.059l-0.13-0.142h-6.091l-3.411-3.883l-0.071,0.012l-0.118-0.142l-20.703,2.585l-4.178-7.885
		h-0.118l-0.071-0.142h-6.102l2.042-3.175V256.86l8.688,2.479l1.771-11.65c0,0-0.708-4.131,0-4.308c0.708-0.177,4.072,0,4.072,0
		v-3.022l2.845,0.72v-3.022l6.091,5.737l0.118,0.118v-13.834l-0.118,0.047v-0.165l-3.305,1.216l-2.432-8.369l1.062-7.094
		l4.084-1.239l-0.708-3.553l-0.106-0.024l-0.012-0.083l-3.6-1.039l1.759-12.323h4.32v1.652l0.118-0.024v0.142l3.718-0.885
		l-1.771-4.084l6.917-5.5l3.907,3.022l1.062-4.969l0.484-0.165l9.443-3.199l2.302,1.416l3.376-3.199h5.855l-5.146-10.104h-0.059
		l-0.059-0.118h-5.194l0.342-2.538h6.917l1.109-5.843l0.307-1.605l-0.118-0.024l0.012-0.094l-20.621-4.757l0.519-2.927l1.593-0.897
		l-0.354-2.479l2.479-2.125h2.125l0.543-7.094h13.999l1.889-1.027l28.99,10.6l-0.035,0.118l-4.603,6.917l-2.845,4.792l1.275,1.169
		l1.027,0.956l-2.302,3.907l7.448-0.708l-0.094-0.094l-0.012-0.012l0.307-0.024l-2.479-2.29l2.974-1.582l2.491-1.322l1.782,1.416
		l4.426-0.885v-0.083l0.201-0.035v-2.018l9.03-0.165l2.479,1.239h7.802v-0.118h0.201v-2.195h4.592v-0.118h0.189v-5.04l9.561-0.685
		v2.302l1.239,0.177v5.678l6.74,0.177l-0.271,1.145l-0.437,1.865l2.833,1.239v3.742l-6.893-1.723l-0.059,0.153l-0.13-0.035
		l-6.032,15.581v0.012l-5.123,2.727l-0.012,0.012l-0.189,0.106l-0.708,6.209l4.792,2.656l0.035-0.201l0.154,0.083l0.484-2.715
		l9.785,11.709l0.531,5.489l6.74-1.062l-0.035-0.083l0.236-0.035l-3.199-8.333l6.657-7.011l14.955-4.58l4.792,3.86l-2.302,3.234
		l-0.472,4.249h0.189v0.012h1.003l1.877,1.652l-0.236,3.069h-2.597l-1.664,1.652l1.192,1.653l-0.472,7.094l5.902,7.33
		L864.85,233.973z"/>
	<path class="st4" d="M768.816,181.553h-5.855l-3.364,3.187l-2.302-1.416l-9.455,3.199l-0.484,0.165l-1.062,4.969l-3.907-3.01
		l-6.905,5.489l1.771,4.084l-3.612,0.862v-1.629h-0.118v-0.118h-4.426l-1.782,12.406l0.13,0.035l-0.012,0.083l3.624,1.039
		l0.696,3.458l-4.084,1.239l-1.062,7.094l2.491,8.51l0.059-0.024l0.047,0.142l3.258-1.192v13.669l-6.091-5.737l-0.118-0.118v3.022
		l-2.833-0.708v3.01c0,0-3.376-0.177-4.084,0c-0.708,0.177,0,4.32,0,4.32l-1.771,11.638l-8.687-2.479V267.2l-2.113,3.293h-0.094
		l-2.337,2.573l-3.494-3.966l-0.059-0.035l0.035-0.035l-8.805-4.733l-8.333-4.426l-5.831-1.416v-3.305h-0.024v-0.071l-3.01-0.708
		l-0.72,2.833l-2.998-1.062l-0.519-3.128h2.479l0.177-2.302l2.302-2.656l3.022,1.593l3.895-4.438l-0.059-0.012l0.047-0.047
		l-6.917-0.708l-1.782,2.833l-1.794-0.72l-0.862-0.342l-13.621-18.048l2.467-5.831l-0.035-0.012l0.024-0.047l-3.258-1.357
		l4.45-5.158h4.084l7.802-5.312l0.035-0.153l0.024-0.012l1.416-6.032l-1.593-8.156l-3.01-4.615h-3.553l-0.331-2.007l3.458-1.723
		l0.071-0.177l3.659-9.762l2.656,3.022l-0.177,3.541l3.73,1.062l4.603-3.364v-0.118l0.071-0.047v-4.497l4.568-0.885l0.035-0.118
		l2.443-8.746h0.012l5.135,1.416v-0.13l0.035,0.012v-3.824l3.352-3.565l2.113-2.243l1.062,1.593l10.989-11.886l-0.012-0.059
		l0.059-0.059l-0.685-2.526l5.784,0.696l0.897-0.071l3.364-0.283l4.958-2.833l0.012-0.106l0.035-0.024l0.177-6.445l4.214-1.405
		l2.656-4.615l3.376-4.603l4.603-1.074l4.438,0.531v-0.118h0.035l0.165-3.411h0.012l5.453,2.29l0.72,2.302l0.295,0.413l1.629,2.219
		l-2.951,4.521v0.059l-0.047,0.059l0.189,6.563h0.024l-0.519,6.976h-2.125l-2.491,2.125l0.354,2.491l-1.593,0.885l-0.531,3.01
		l0.13,0.035l-0.012,0.083l20.621,4.769l-0.319,1.629l-1.086,5.725h-6.917l-0.354,2.656h0.118l-0.012,0.118h5.264L768.816,181.553z"
		/>
	<path class="st6" d="M803.141,130.349l-4.922,20.22l-28.931-10.576l-0.071,0.035l-0.083-0.035l-1.948,1.062H753.2l0.012-0.118
		l-0.177-6.504l2.975-4.544l-0.024-0.035l0.059-0.083l-1.641-2.254l-0.307-0.413l-0.708-2.302l-5.5-2.302l-0.012,0.13l-0.024-0.012
		l-0.177,3.423l-4.391-0.531l-4.615,1.062l-3.364,4.615l-2.668,4.603l-4.249,1.428v0.106h-0.012l-0.035,0.012l-0.165,6.457
		l-4.934,2.821l-3.352,0.283l-0.909,0.071l-5.855-0.708l0.035,0.13l-0.071-0.012l0.696,2.597l-10.942,11.827l-1.062-1.594
		l-2.207,2.349h-0.012l-3.281,3.494v0.083l-0.035,0.047v3.765l-5.111-1.405l-0.035,0.118l-2.443,8.746l-4.603,0.885v0.118h-0.047
		l-1.062-3.541l-3.541,1.239l-3.541-5.465l3.518-1.228v-0.035l0.024-0.012v-4.78l-0.921-2.491l-2.455-6.728v-0.012l2.101-3.317
		v-0.012l0.024-0.035l-8.853-5.701l-1.074-0.685l-0.177-9.407l-4.438-4.781l2.113-4.037l0.024-0.035l-0.449-1.759l-1.499-5.878
		l-1.782-1.062l1.051-4.214l0.012-0.047l-6.527-7.413l5.264-1.405l1.416,2.833l2.668,1.605h3.895l5.323-6.74l-0.012-0.012
		l0.035-0.035l-2.845-1.948l-7.271-3.022l-4.603,2.491l-1.771-2.491l-0.024,0.047l-1.039,2.089h-3.376v-2.136l-4.438-0.177
		l-3.541,3.73l0.012,0.012l-0.035,0.035l10.116,15.25l-1.228,3.494l-4.072-0.885l-3.553-7.271l-5.323-5.666l-5.135,2.302
		l-1.239-1.416l1.086-2.644l0.13-0.33l0.024-0.047l-3.022-0.354l-0.024,0.047l-5.642,11.839l-7.46,0.531l-1.593-4.084l-4.615,3.73
		l-0.519-1.416l0.165-4.615l-2.479-2.479l0.177-9.006l7.259-2.833l-0.012-0.035l0.024-0.012l-1.771-6.032h-4.781l-6.209-7.448
		l-3.022,2.656l-2.302-5.831l6.893-9.195l0.024-0.035l-6.209-6.386l2.302-10.246l3.529,0.354l1.062-1.416V51.36l0.024-0.035
		l-0.531-2.101l1.747-1.405l-0.012-0.012l0.035-0.024l-0.531-0.791c0.637,0.826,5.855,3.093,5.855,3.093l7.271-6.032l-7.802-4.958
		l6.917-10.824l5.855-3.364l9.042,1.771l2.125-1.771l6.386,4.072v3.907l7.625,9.396l3.364,7.802l6.563,7.625l5.678,9.75v3.553
		l15.604,2.833l6.209-3.364v-5.855L688.8,60.72l-1.062-6.728l3.541-6.917l8.687,0.165l7.637-0.354V44.23l2.302-0.885l-6.74-7.448
		l8.865-3.01l8.51,4.603v2.668l6.032,0.885l-2.302-2.845l8.688-5.146v-2.125l5.5,0.177v2.136l3.01-3.022l10.293,3.022v7.271
		l7.979-0.708l1.416-2.314l7.094,6.386l8.865-0.885l3.01,4.792l2.314-2.845l6.374,11.532l-2.125,1.771l5.678,9.396l-5.678,1.074
		l-0.531,5.135l-1.416,4.969l-1.239,2.302v2.443l-0.283-0.153v0.838l0.283,0.083v0.342l3.541,1.062l-1.948,3.187l-3.553-1.593
		l-2.302,1.593l-2.998-1.228l1.357-2.384l-0.024,0.012l0.071-0.118l-15.427,4.781l0.035,0.094l-0.083,0.024l1.877,4.934
		l-3.789-3.093l-0.035,0.106l-2.266,5.748l-1.771-2.136l-2.656,4.084v0.035l-0.047,0.071l0.354,4.367l-4.568,4.391h0.071
		l-0.118,0.106h12.771l5.5,2.491h6.74l4.78,1.593l2.845,1.948l18.98,3.376l-3.506,9.289l-0.047,0.106L803.141,130.349z"/>
	<path class="st3" d="M683.984,177.458v4.497l-4.544,3.317l-3.73-1.062l0.177-3.553l-2.656-3.01l-0.059,0.165l-3.659,9.762
		l-3.553,1.782l0.024,0.118l-0.083,0.047l0.354,2.125h3.541l3.022,4.615l1.593,8.156l-1.381,5.878l-7.779,5.3h-4.084l-4.58,5.3
		l-0.047-0.024l-0.885-0.378l-7.802-1.594l0.165-4.592v-0.024l3.34-4.19l-0.13-0.024l0.165-0.212l-5.135-0.708l-9.171,4.993
		l-0.59,0.33l0.106,0.153l-0.142,0.071l0.519,0.744l3.293,4.615l-2.538,1.865l-1.062-0.401l-3.718-1.381l-5.5,3.73l-3.187-1.771
		l-2.136,3.895l-1.877-1.357l-3.258-2.361v-5.5l-8.522-4.615l-0.354-4.249l-2.892-8.003l1.794,1.133l2.656-3.01l2.491-5.146
		l-0.071-0.012l0.106-0.212l-7.979-1.605v-3.541l-7.802-0.885l-0.047,0.224l-0.661,3.317l-2.951-1.251l-5.382-2.29l-6.386,1.771
		l-0.083,0.248h-0.035l0.165-0.472l-24.481,5.146l-2.337-0.838l2.255-4.025l-0.094-0.153l0.177-0.307l-7.082-11.886v-3.907
		l-4.792-1.771l-5.501,2.314l-6.563-1.251l-3.152-7.531v-0.012l1.475-4.403l8.853-5.146v-2.479l-7.979,0.885l0.354,2.833
		l-6.197,0.354l-3.73-2.656l0.708-2.668l-6.917-7.271v-2.479l-4.167-1.948l1.865-8.156c0,0,4.261-1.251,4.615-1.959
		c0.354-0.708,2.125-3.718,2.125-3.718l2.302-1.239l3.057-9.042h-2.88l-1.239-1.251l-1.239-1.771l-1.416-2.656v-2.668l-1.593-1.771
		l8.369-8.333l-0.921-5.5h-3.376l1.771-5.146l6.563-1.228l-5.135-9.053l-6.386,1.416l-8.522,0.885l-7.082-2.302v7.625l-4.261,0.177
		V68.392l-5.855-4.426l1.062-3.553l6.74-2.833h19.334l-0.885-5.855h11.52l3.73-3.553l7.979-1.239l3.895-4.969l8.168-4.426h3.718
		l1.593-3.553l4.615,3.199l6.74-1.239l6.563,7.094h1.416v-2.845h2.125l9.053-6.209l-1.062-7.802l9.573-4.957l2.833,7.802
		l-1.062,6.209l4.072,8.333l3.376,0.885l1.747,2.55c0.012,0.012,0.012,0.024,0.024,0.035l0.519,0.767l-1.735,1.393v0.024
		l-0.024,0.012l0.531,2.125v0.012l-1.039,1.369l-3.553-0.354v0.047h-0.024l-2.302,10.281l6.209,6.386l-6.893,9.195l-0.024,0.035
		l2.302,5.855l3.022-2.668l6.209,7.448h4.78l1.771,5.996l-7.247,2.833v0.035h-0.012l-0.189,9.042l2.491,2.491l-0.177,4.603
		l0.531,1.428l4.615-3.73l1.593,4.084l7.448-0.531l0.024-0.047l5.642-11.839l3.022,0.354l-0.13,0.33l-1.11,2.679l1.239,1.428
		l5.146-2.314l5.312,5.678l3.553,7.271l4.072,0.885l0.024-0.047l1.228-3.494l0.012-0.047l-10.092-15.238l3.517-3.695l4.426,0.177
		v2.125h3.376l0.024-0.035l1.039-2.089l1.771,2.491l4.615-2.491l7.271,3.022l2.821,1.936l-5.288,6.704h-3.895l-2.668-1.593
		l-1.416-2.845l-5.312,1.428l0.024,0.024l-0.047,0.012l6.563,7.448l-1.074,4.261l1.782,1.062l1.487,5.831l0.46,1.794l-2.113,4.037
		l-0.024,0.047l4.438,4.78l0.177,9.408l1.074,0.685l8.853,5.689v0.012l-2.101,3.317v0.012l-0.024,0.035l2.443,6.693l0.932,2.526
		v4.757l-3.529,1.228l0.012,0.035l-0.035,0.012l3.553,5.5l3.541-1.239L683.984,177.458z"/>
	<polygon class="st5" points="578.743,194.738 575.898,197.925 575.957,198.031 575.957,198.043 575.851,198.149 577.008,200.475 
		566.502,205.55 566.502,205.751 566.455,205.774 566.278,226.879 574.08,240.182 574.93,245.281 573.136,245.505 562.064,246.875 
		554.793,245.635 552.492,244.03 548.053,244.927 548.101,245.128 548.006,245.151 549.777,253.839 550.674,262.526 
		554.557,267.472 554.557,267.484 551.429,278.437 551.441,278.461 551.382,278.662 552.964,283.773 552.964,283.784 
		552.834,284.245 551.96,287.302 551.972,287.326 551.913,287.538 554.215,291.964 558.972,290.914 557.107,296.532 
		554.262,297.595 552.137,301.136 546.46,302.033 546.531,302.234 546.413,302.257 549.777,311.299 553.507,311.299 
		553.518,311.369 553.577,311.724 555.372,321.993 548.407,320.116 541.467,323.834 537.241,323.834 537.17,323.952 
		537.123,323.952 536.545,324.849 536.108,325.534 535.601,326.325 533.511,326.325 533.488,326.431 533.393,326.431 
		532.862,329.276 539.779,341.504 542.576,345.175 535.813,347.772 535.766,347.866 535.695,347.89 532.189,354.039 
		532.177,354.039 528.908,356.117 528.896,356.164 528.79,356.235 526.677,366.209 521.991,365.513 510.105,364.273 506.387,360.65 
		506.387,359.481 511.167,359.481 506.387,347.064 505.49,341.398 501.24,341.398 503.896,334.127 494.323,332.71 484.219,341.398 
		480.312,343.523 477.657,343.168 473.75,332.71 470.917,328.803 467.187,326.148 480.312,324.011 482.083,326.679 484.219,325.971 
		486.439,322.854 487.761,321.001 486.521,316.929 480.844,316.929 478.542,312.491 480.667,303.449 490.948,303.449 
		490.948,299.188 492.01,295.281 492.01,292.271 477.303,297.241 472.864,289.438 474.812,286.948 474.812,285.177 472.864,281.636 
		476.051,281.636 470.74,271.166 473.927,269.927 476.405,270.989 476.948,267.979 479.073,269.927 479.958,267.979 
		477.834,263.364 479.25,261.948 476.594,261.062 479.958,253.26 472.864,249.707 473.041,245.812 478.542,238.187 475.52,237.302 
		475.343,233.572 471.979,230.916 472.156,229.323 467.187,223.468 462.229,223.468 462.229,218.853 463.292,215.489 
		460.978,215.489 460.978,212.29 456.729,207.321 455.667,203.071 453.542,199.164 446.436,197.217 442.895,191.008 
		448.396,183.383 449.812,176.466 459.208,178.768 467.364,181.967 467.187,166.716 470.032,166.716 481.198,170.269 
		483.145,166.716 493.084,170.788 491.845,173.102 496.094,173.81 502.48,175.581 520.752,174.164 529.439,163.872 529.474,163.954 
		529.474,163.966 529.345,164.332 532.543,171.957 539.094,173.208 544.595,170.895 549.387,172.665 549.387,176.572 
		556.387,188.305 554.085,192.424 554.227,192.484 554.002,192.885 556.481,193.77 580.879,188.647 	"/>
	<polygon class="st10" points="700.768,269.077 697.924,272.146 698.868,294.349 689.236,296.462 689.177,296.497 682.851,299.53 
		672.912,305.208 672.888,305.243 672.865,305.255 669.749,309.776 668.131,312.113 666.479,317.071 667.895,318.251 
		667.943,318.204 667.954,318.216 670.032,316.126 673.809,318.251 674.753,320.86 677.114,320.86 674.989,323.692 689.177,330.55 
		690.83,334.67 690.37,335.956 685.447,337.125 685.447,337.16 685.388,337.172 685.388,342.614 688.705,342.614 690.122,348.043 
		692.01,351.596 686.817,360.107 684.031,362.196 683.972,362.231 683.972,366.256 682.319,369.797 682.874,370.919 
		680.395,374.448 670.941,370.895 670.705,372.312 668.108,373.032 666.455,370.659 657.461,377.753 653.448,372.784 
		639.732,371.603 631.694,369.243 624.116,369.243 623.36,369.561 624.092,359.528 626.925,354.039 626.807,354.016 
		626.854,353.921 611.262,350.557 611.25,350.546 607.237,342.862 607.225,342.873 607.166,342.755 603.271,346.65 594.394,344.88 
		590.853,340.796 588.197,340.796 585.353,338.848 574.718,341.504 562.123,323.952 555.407,322.146 555.372,321.993 
		555.383,321.993 555.466,322.016 553.672,311.712 553.601,311.346 553.554,311.074 549.836,311.074 546.531,302.234 552.09,301.36 
		554.215,297.819 557.048,296.757 559.007,290.902 558.972,290.914 559.054,290.678 554.262,291.74 551.972,287.326 
		552.975,283.808 552.964,283.784 552.964,283.773 553.023,283.584 551.441,278.461 554.569,267.495 554.557,267.484 
		554.557,267.472 554.616,267.271 550.721,262.302 549.836,253.614 548.101,245.128 552.444,244.266 554.746,245.859 
		562.017,247.099 573.089,245.73 574.966,245.505 574.93,245.281 575.013,245.281 574.128,239.958 566.325,226.655 566.502,205.751 
		577.09,200.64 577.008,200.475 577.138,200.404 575.957,198.043 575.957,198.031 578.684,194.962 580.915,188.647 580.95,188.636 
		587.336,186.853 595.669,190.406 595.716,190.17 596.377,186.853 604.18,187.75 604.18,191.291 612.1,192.873 609.727,197.795 
		607.06,200.817 605.112,199.577 605.23,199.908 605.077,199.802 608.086,208.135 608.441,212.396 616.951,217.011 616.951,222.5 
		620.244,224.884 622.097,226.23 624.222,222.323 627.409,224.094 632.91,220.375 636.628,221.745 637.702,222.146 640.369,220.198 
		640.275,220.069 640.275,220.057 640.405,219.962 637.029,215.217 636.616,214.627 637.053,214.379 646.212,209.386 
		651.229,210.071 648.03,214.12 648.018,214.285 648.018,214.308 647.995,214.344 647.806,219.136 655.608,220.73 656.493,221.095 
		656.623,220.966 659.893,222.323 657.426,228.119 657.461,228.166 657.449,228.189 671.106,246.273 671.956,246.627 
		673.762,247.347 675.532,244.502 682.39,245.198 678.53,249.578 675.521,247.984 673.207,250.652 673.03,252.953 670.551,252.953 
		671.082,256.14 671.094,256.14 671.106,256.211 674.116,257.274 674.824,254.441 677.822,255.149 677.822,258.454 677.846,258.454 
		677.846,258.513 683.689,259.929 692.034,264.367 700.78,269.065 	"/>
	<polygon class="st8" points="628.861,386.677 632.13,390.17 629.911,397.618 619.394,398.799 619.43,398.964 619.406,398.964 
		625.048,421.096 619.158,442.779 618.45,453.898 612.536,455.314 609.928,452.375 600.945,452.375 598.585,453.461 
		598.585,442.059 595.823,441.174 592.27,437.798 593.332,435.496 587.123,435.496 587.123,423.445 584.822,425.569 
		573.301,424.684 564.956,429.819 564.956,433.372 562.3,432.486 561.415,428.225 557.685,428.933 559.822,443.487 553.436,445.789 
		553.436,448.976 549.175,446.674 542.258,451.278 539.602,443.121 535.518,444.715 531.269,445.423 521.507,438.542 
		518.497,428.933 515.664,427.871 511.226,428.933 516.727,419.361 511.226,419.361 509.101,416.882 503.247,418.652 
		502.185,412.09 500.756,419.007 497.038,421.485 484.09,414.745 485.86,407.297 487.643,405.527 489.236,406.589 490.298,394.573 
		484.09,394.573 485.152,385.85 488.882,386.558 489.236,381.412 495.445,381.412 511.226,383.891 512.288,381.412 519.559,382.829 
		516.904,376.797 518.497,374.495 522.746,374.495 521.873,365.631 526.653,366.339 526.677,366.209 526.771,366.221 
		528.896,356.164 532.154,354.098 532.177,354.039 532.189,354.039 532.272,353.98 535.766,347.866 542.612,345.234 
		542.576,345.175 542.73,345.116 539.897,341.398 532.98,329.158 533.488,326.431 535.518,326.431 535.601,326.325 535.648,326.325 
		536.143,325.546 536.663,324.731 537.17,323.952 541.337,323.952 548.289,320.222 555.348,322.134 555.407,322.146 
		555.419,322.241 562.194,324.07 572.558,338.518 572.57,338.518 572.581,338.53 574.789,341.622 578.601,340.666 578.613,340.666 
		585.424,338.966 588.268,340.914 590.924,340.914 594.394,344.88 594.477,344.986 603.341,346.768 607.225,342.873 611.25,350.546 
		611.262,350.557 611.321,350.664 626.807,354.016 625.143,357.25 624.021,359.422 623.278,369.597 620.103,370.895 
		620.173,371.037 620.114,371.06 624.139,378.626 628.625,378.626 632.331,384.646 628.849,386.499 628.955,386.617 	"/>
	<path class="st4" d="M862.549,323.716l-0.366,0.142l-1.983,0.732l-0.083,0.035l-0.767,0.271c-0.035,0.012-0.071,0.024-0.106,0.035
		c-0.024,0-0.035,0.012-0.059,0.012c-0.059,0.012-0.118,0.035-0.165,0.047c-0.177,0.047-0.331,0.106-0.484,0.177l-0.012,0.012
		l-0.354,0.118h-0.012l-0.803,0.649l-0.685,1.322v0.012l-0.201,1.511l0.153,1.83l0.401,1.818l1.133,3.199l0.012,0.012l-2.845,1.771
		l-0.354,7.755l-5.182-1.039l-0.012,0.047l-0.118-0.024l-2.077,6.539l-2.042-4.792l-0.083,0.165l-0.059-0.142l-13.468,27.644
		l-8.026-0.354l-0.047,0.024h-0.094l-6.74,4.261l3.553,2.479l-8.581,14.743l-0.236-0.118l0.213-0.354l-6.586-3.329l1.546-5.748
		l-0.106-0.153l0.083-0.319l-4.261-6.15l-3.541-12.288l-3.317-3.081l-3.305-1.889l-7.33,10.718l-6.622-1.263l-1.416-4.485
		l-3.081-0.484l-0.201-2.833l-0.035-0.472l-7.802-1.889l-9.927,0.708l-5.441-3.317l-10.423,3.305v-6.858h-0.024v-0.46l-14.377,2.125
		l0.153,0.449l-0.13,0.024l1.251,3.553h-13.574l-1.652-5.205l-9.16,5.536l-0.059,0.177l-0.956,0.578l-12.536,5.678v4.958
		c0,0,0.012,0.024,0.035,0.059v0.106c-0.271-0.342-0.968-1.322-2.632-3.706l-3.069,3.541l-0.531-1.039l-0.024,0.047l-0.543-1.086
		l1.653-3.553v-4.013l2.786-2.089l0.047-0.035l5.205-8.522l-1.889-3.541l-1.428-5.441h-3.305v-5.406l4.91-1.169l0.012-0.035
		l0.047-0.012l0.472-1.31l-1.653-4.131l-14.188-6.846l2.125-2.845h-2.361l-0.956-2.597l-3.777-2.136l-0.047,0.047h-0.012
		l-2.077,2.077l-1.416-1.169l1.664-4.969l1.57-2.29l3.128-4.533l9.903-5.666l6.386-3.081l9.691-2.125v-0.024l0.059-0.012
		l-0.944-22.238l2.786-3.022l3.541,4.013l0.024-0.024l0.047,0.047l2.373-2.597l0.012-0.024h0.189l-0.094,0.142h6.268l4.19,7.897
		l0.106-0.012l0.083,0.153l20.739-2.597l3.423,3.872h0.059l0.13,0.142h6.091l1.523,1.747h0.071l0.118,0.142h2.998l2.254,3.057
		l0.071-0.012l0.118,0.153l6.15-1.31l8.321-0.236v1.405l0.189-0.047v0.189l5.642-1.298l3.86,3.399l0.024-0.012l0.165,0.153
		l5.323-2.195l1.11,2.998l0.13-0.012l0.059,0.153l17.493-2.125v-4.261l10.316,2.384l-1.039,1.971l0.047,0.024l-0.059,0.106
		l10.399,5.914l1.664-2.125l17.257,3.541v4.025h8.51l2.845,7.33h8.44l-0.626,5.536v0.024l-0.012,0.106v8.652L862.549,323.716z"/>
	<path class="st2" d="M998.16,468.688l0.354,4.261l-3.789,8.251l-0.212-0.047l-0.059,0.118h-7.448l-16.926,21.872l-3.246-2.585
		l-0.106,0.106l-0.295-0.236l-8.487,8.487l-8.487-3.399l-0.024,0.024l-0.378-0.153l-3.907,4.969l-3.895,2.833l4.603,6.032
		l-3.187,3.553l-0.708,7.802l-26.959-6.74h-12.771l2.845,8.156h0.354l0.047,0.13h2.396l-2.798,10.789l2.479,4.686l0.165-0.319
		l0.236,0.448l2.361-4.45l12.406,15.569l-5.312,3.635l-2.845,18.803l-27.774,3.163l-9.537,1.086l-5.241-2.833l-6.256-6.598v-3.907
		h-0.13v-0.496l-8.156-0.354l-4.426-9.514l7.767-9.596l10.257-12.665l-0.437-0.106l0.272-0.342l-2.609-0.649l0.649-4.58l-0.189-0.26
		l0.024-0.177l-8.51-11.709c0,0-3.199-6.74-7.448-7.802c-0.696-0.165-1.11-0.425-1.334-0.744c0,0-0.012-0.012-0.012-0.024
		c-0.212-1.652,3.281-4.108,3.281-4.108l-0.413-0.271c0.153-0.106,0.248-0.177,0.248-0.177l-9.821-6.433l14.601-6.952l-8.876-24.115
		c0,0,5.677-2.136,4.261-7.448c-0.165-0.637-0.331-1.145-0.496-1.546c0,0-0.012-0.012-0.012-0.024
		c-1.239-3.517-2.408-0.873-2.491-0.661l-1.617-4.509l-0.165-0.449l-5.677,1.062v1.782l-4.674-1.346l1.652-5.312l-0.283-0.059
		l0.118-0.378l-9.844-2.042l2.207-2.845l-0.354-0.189l0.189-0.248l-6.386-3.364l3.01-4.001l-0.342-0.224l0.165-0.212l-3.022-2.03
		v-3.919l2.845-1.062l2.479-8.51l-0.248-0.153l0.083-0.283l-12.075-7.601l4.792-6.504l-0.331-0.212l0.165-0.224l-14.943-9.384
		l11.202-19.264l-3.541-2.479l6.681-4.238h0.012l8.062,0.354l0.012-0.024h0.13l13.397-27.502l2.066,4.828l0.059-0.201l0.083,0.177
		l2.113-6.693l5.194,1.039v-0.047l0.142,0.024l0.354-7.802l2.845-1.771c0,0-3.954-8.569,0.212-10.446l0.012-0.012l0.649-0.224
		c0.024,0,0.035-0.012,0.059-0.012c0.035-0.012,0.071-0.024,0.106-0.035c0.98-0.307,2.077-0.708,3.211-1.157l0.024,0.083
		c4.509-1.806,9.396-4.356,9.396-4.356l19.511,24.469l11.367,5.595l-0.094,0.083l12.229,6.02h2.833c0,0,10.647,2.136,12.771,4.615
		c2.125,2.479,15.958,6.74,19.511,9.219c3.541,2.491,10.989,12.772,10.989,12.772l10.293-3.187l5.312,3.187h14.129l-0.071-0.153
		h0.224l0.024,0.059h0.413l2.491,6.386h4.958c0,0,3.553,2.125-1.416,4.261c-0.602,0.26-1.169,0.46-1.676,0.602
		c-0.012,0-0.024,0-0.035,0.012c-0.189,0.047-0.378,0.094-0.555,0.13c-0.13,0.035-0.26,0.059-0.39,0.071
		c-2.774,0.401-3.836-0.873-3.836-0.873s-0.023,0.083-0.071,0.224c-0.118-0.094-0.177-0.165-0.177-0.165s-1.771,5.666-6.74,8.156
		c-4.958,2.479,10.293,13.48,10.293,13.48l-7.448,11.343l2.125,5.678l-6.032,9.927l9.939,12.772l-0.72,3.553l2.136,2.125h7.448
		v2.125h2.125L998.16,468.688z"/>
	<path class="st5" d="M870.634,539.462l-10.08,12.453l-7.696,9.502l-25.578,4.356l-7.047-1.877l2.786-6.256l-0.059-0.024
		l0.024-0.059l-13.763-6.846v-4.19l-0.024-0.012v-0.071l-24.044-11.107l-3.305,6.622l-1.664-2.845l-8.51,0.472l-5.205-4.721
		l-1.18,2.597l-9.183,4.485v-6.763h-0.035v-0.083h-8.746l-13.716-3.789l-2.597,3.789l-25.732-2.609l2.313-5.524l-0.047-0.024
		l0.047-0.13l-4.485-1.889l0.177-3.022l1.003-17.398h9.219l3.541-4.497v-0.13l0.012-0.012v-4.969l-6.15-1.18H696.72l-1.381-3.234
		l3.978-6.315v-0.142l-0.224-5.3h4.001l2.609-4.733l-0.012-0.118l0.012-0.024l-0.224-4.816l2.821,1.652v-4.875l-6.598-2.597
		l3.529-19.96h-0.024l0.024-0.142l-18.673-4.733l-12.299,4.733l-6.067-2.325v-0.012l3.222-4.143h4.733v-6.138l1.889,2.597
		l3.305,0.944l0.472-3.553l-0.012-0.012l0.024-0.13l-3.695-3.458l3.931-2.066v-1.44h5.43l-0.012-0.142h0.024l-0.46-4.344
		l6.988-1.169l-0.094-0.13l0.094-0.012l-2.986-4.497l0.236-3.883h-0.012l0.012-0.142l-5.866-18.98h0.012l6.091,2.337l5.583-10.163
		l-0.059-0.035l0.059-0.106l-5.548-3.057l2.325-8.392l6.386-2.597l2.278-7.035l0.177-0.106l9.16-5.536l1.653,5.194h13.716
		l-0.165-0.46h0.142l-1.263-3.577l14.223-2.113v6.87l0.024-0.012v0.472l10.446-3.305l5.441,3.305l9.927-0.708l7.814,1.9l0.201,2.833
		l0.035,0.472l3.069,0.472l1.416,4.497l6.622,1.263l7.33-10.729l3.317,1.9l3.305,3.069l3.541,12.299l4.155,5.996l-1.57,5.831
		l0.13,0.071l-0.106,0.39l6.48,3.293l-2.561,4.415l0.307,0.201l-0.142,0.248l14.92,9.36l-4.804,6.504l0.342,0.213l-0.177,0.236
		l12.17,7.649l-2.408,8.227l-2.833,1.062v4.249l0.165,0.106v0.342l2.857,1.9l-3.022,4.037l0.354,0.189l-0.189,0.26l6.386,3.352
		l-2.29,2.939l0.437,0.094l-0.271,0.354l9.998,2.066l-1.653,5.288l0.283,0.083l-0.118,0.366l4.969,1.416v-1.771l5.666-1.062
		l1.605,4.521c0,0,0,0,0.012-0.012l0.165,0.449c0,0,1.098-2.738,2.325,0.212c0,0.012,0.012,0.024,0.012,0.024
		c0.106,0.319,0.224,0.685,0.331,1.098c1.416,5.323-4.261,7.448-4.261,7.448l0.165,0.449l8.699,23.666L844.3,501.88l0.472,0.307
		l-0.295,0.142l9.868,6.468c-0.885,0.673-3.777,3.022-2.868,4.379c0,0.012,0.012,0.024,0.012,0.024
		c0.059,0.508,0.496,0.932,1.499,1.192c4.249,1.062,7.448,7.802,7.448,7.802l8.322,11.438l-0.685,4.78l0.224,0.059l-0.059,0.39
		L870.634,539.462z"/>
	<path class="st3" d="M717.046,495.034v4.839l-3.541,4.474h-9.219l-1.003,17.552l-0.177,3.022l-0.012,0.142l4.45,1.877l-2.314,5.548
		h0.047l-0.047,0.142l-3.057,9.396l-16.773-4.721l0.035,0.071l-0.071-0.012l3.069,8.51h3.293l-6.327,6.091l0.012,0.012l-0.047,0.047
		l1.416,3.305l-10.6,14.613l-0.035,0.047l3.293,3.069l-9.643,9.408l0.012,0.012l-0.047,0.047l7.318,10.151l-23.595,17.221
		l-2.75-1.558l-0.071,0.035l-14.719-8.345l-2.125-4.733l-6.386,2.833v-4.013l-5.441,0.708l-1.889-1.416h-6.858V583.23l7.33-6.61
		l-21.99-4.261l-2.833,4.497l-5.914-3.789l4.485-1.782l-4.485-5.312l-8.983,1.416v-3.069l-2.373-1.653l-2.361,3.305l-7.33-2.125
		l6.858-15.368l-3.081-5.382l2.372-2.656l11.343,1.652l1.664-1.889l-0.956-3.553l-3.069-1.18l-2.361,1.889l-2.361-3.553h-7.578
		l-4.013,4.497l-12.063-3.541l-0.944-3.553l1.18-12.299l7.566-4.013v-6.15h-3.069l-0.236-8.038l5.914,4.261l1.653-2.845
		l-2.125-2.833l1.18-5.678l-4.969-2.597l11.107-1.416l1.192-3.789l8.038,2.597l3.305,5.678l3.789,2.125l2.361-4.485l2.361,2.597
		l5.205-2.125l-1.653-4.025l4.013-6.15l2.609-1.652l-9.219-1.18l-1.664-7.802l-8.274-11.591l13.716-6.339v0.177l2.373-1.098h8.994
		l2.597,2.939l5.902-1.416l0.72-11.119l5.914-21.754l-0.035-0.094l0.024-0.071l-5.642-22.061l10.493-1.18l2.243-7.566l-0.035-0.047
		l0.035-0.118l-3.211-3.435l3.447-1.841l-0.071-0.13l0.071-0.035l-3.789-6.15h-4.497l-3.942-7.424l3.081-1.263l0.024-0.177
		l0.083-0.035l-0.024,0.319l0.874-0.354h7.566l8.038,2.361l13.716,1.18l4.013,4.969l8.062-6.362l0.921-0.732l0.992,1.416h0.012
		l0.661,0.944l1.121-0.307l1.475-0.401l0.236-1.416l9.455,3.553l2.514-3.577l0.508,1.015l3.081-3.553
		c2.089,3.01,2.656,3.777,2.762,3.86c-0.012-0.059-0.165-0.307-0.165-0.307v-0.165c0.071,0.094,0.106,0.13,0.13,0.142
		c0-0.035-0.083-0.177-0.13-0.248v-4.698l12.535-5.678l0.779-0.472l-2.231,6.87l-6.374,2.597l-2.373,8.51l0.035,0.024l-0.035,0.118
		l5.524,3.045l-0.307,0.555l-5.217,9.502l-6.15-2.361l0.047,0.165l-0.047-0.024l5.902,19.146l-0.224,3.883v0.142l2.892,4.367
		l-6.905,1.169l0.012,0.13l-0.024,0.012l0.46,4.332h-5.418v1.44l-4.025,2.125l0.094,0.083l-0.094,0.059l3.765,3.529l-0.449,3.423
		l-3.317-0.944l-1.889-2.609v6.15h-4.733l-3.305,4.261l0.083,0.024v0.012l-0.083,0.106l6.138,2.361l12.299-4.721l18.661,4.721
		l-3.518,19.96h0.012l-0.024,0.142l6.622,2.597v4.592l-2.833-1.653l0.012,0.142h-0.012l0.224,4.839l-2.585,4.71h-4.025v0.142
		l0.236,5.3v0.012l-4.013,6.374l0.035,0.071l-0.047,0.071l1.416,3.305h14.188L717.046,495.034z"/>
	<path class="st4" d="M822.959,557.616l-2.786,6.268l-4.474,0.944v0.142h-0.012v6.622h-0.059v-0.142h-8.51l-12.771,2.833
		l-2.136,11.249h-7.802l-3.541,5.312h-1.18l-0.035,0.071l-2.101,5.123l0.071,0.13v0.012l3.045,5.666l0.189,0.342l-0.201,0.047
		l-7.354,1.369l-1.416-1.416c0,0-7.566,13.244-8.274,13.716c-0.72,0.472-7.094-4.497-7.094-4.497l-5.205,1.9l-5.677,2.125
		l2.597,15.368l-1.653,2.125l-2.361-0.944l-3.553,4.025l-7.566-1.18l-7.094,4.013l-8.51-2.833l-4.391,2.998l-9.797,6.693
		l-14.188,4.261l-3.01,0.755l-0.024,0.153l-0.059,0.024l0.047-0.378l-6.445,1.605l-6.386-6.386l-5.205-2.125l1.664,7.33h-3.789
		l-10.163-6.858l-5.123-0.708v0.401l-9.278,6.315l-2.762-7.33l2.762-9.927l1.487-8.982l-3.305-3.541l1.818-1.192v-4.497
		l-9.384-4.721l1.889-4.025l9.939,6.386l6.87-3.883l2.786,1.582l23.643-17.257l-0.012-0.024l0.047-0.035l-7.318-10.163l9.644-9.408
		l-0.012-0.012l0.047-0.047l-3.305-3.069l10.6-14.613l0.035-0.059l-1.405-3.293l6.339-6.102h-0.024l0.059-0.059h-3.305l-3.045-8.44
		l16.714,4.721l0.024-0.071l0.012,0.012l3.081-9.455l25.779,2.597l2.597-3.789l13.716,3.789h8.711v6.775l0.035-0.012v0.094
		l9.219-4.497l1.18-2.597l5.205,4.721l8.51-0.472l1.664,2.845l3.305-6.622l24.008,11.095v4.19l0.024,0.012v0.071L822.959,557.616z"
		/>
	<path class="st9" d="M1187.195,393.947v10.128l-2.833,2.479h-14.188l-2.479,6.74l0.165,0.142l-0.012,0.012l6.22,5.194l-2.125,4.946
		l-7.448-1.782l-2.125,3.907l0.165,0.142l-0.012,0.012l2.679,2.325v0.012l-2.125,4.249l0.708,7.094l-8.865,6.386l-0.354,3.541
		h-7.448l-1.782,3.104l1.782,2.219l-6.386,3.907l-0.708,3.187l1.416,3.187l-3.541,3.199l-1.062,8.51l0.153,0.094h0.012l-0.012,0.059
		l5.512,3.104v1.712l-4.604-1.416l-6.031,18.083l-1.086-0.189l-0.012-0.035l-8.723-1.558l-1.015-3.388l-0.13-0.024l-0.047-0.165
		l-2.125-0.354l-3.541-3.907l-2.49,1.428l0.165,0.189l1.605,1.936l-5.312,1.771l-9.585,4.261h-9.573l1.416,4.249l-7.448,7.448
		l-9.573-4.958l-4.969,7.448l-11.343-6.74l-7.802-0.354l-14.896-15.604l-14.188,15.25l-19.7-22.155l-0.165-0.189l-6.409-1.534
		l3.836-8.357l-0.354-4.261l5.666-6.74h-2.125v-2.125h-7.448l-2.125-2.125l0.708-3.553l-9.927-12.76l6.02-9.939l-2.125-5.678
		l7.448-11.343c0,0-15.25-11.001-10.281-13.48c4.367-2.184,6.28-6.858,6.669-7.932c0.413,0.342,1.605,1.062,3.907,0.649
		c0.13-0.012,0.26-0.035,0.39-0.071c0.177-0.035,0.366-0.083,0.555-0.13c0.012-0.012,0.024-0.012,0.035-0.012
		c0.578-0.142,1.216-0.354,1.924-0.661c4.958-2.125,1.416-4.261,1.416-4.261h-4.969l-2.479-6.386h-0.685l-4.379-9.419l4.615-5.323
		l-2.314-3.187l4.662-3.458h4.556l-0.047-0.094h0.236l-2.443-4.521h6.516v-0.083h0.177v-3.907l1.275-3.624l3.695-6.657l-1.381-5.548
		l8.652,2.089v-0.142l0.177,0.047v-3.388l25,9.856l24.835-7.448l4.604,8.522l0.13-0.189l0.059,0.094l3.057-4.415l1.723,4.509
		l4.249,0.354l2.49,2.396v10.187l1.771,6.917l4.615,5.678l4.958,4.969v6.386h7.802l6.74,4.249l0.059-0.165l0.13,0.083l2.089-5.595
		h3.4v-0.083h0.177v-11.709l-2.833-0.708l-0.697-7.849l23.926,4.037l0.083-0.094l0.094,0.012l3.47-3.99h4.863l3.553,2.656
		l3.541,1.771l2.479-0.708l4.969,4.261v3.895l3.576-0.307h0.036v-0.071l0.153-0.012l0.012-0.012h0.012l4.391-0.378v7.283
		l0.154,0.035h0.012v0.118l17.575,4.91v9.478h0.153v0.153H1187.195z"/>
	<path class="st8" d="M1349.105,435.177l-4.261,3.789l-5.441,8.51l-4.013,5.205l-4.497,10.871l-4.957,13.716v10.175l-6.15,4.013
		l2.833,3.081l-4.969,1.889l-5.193,4.013l-7.33-2.125l-3.553,2.125l-3.305,3.317l-16.088,1.416l-20.326,9.455
		c0,0-0.944,8.274-6.386,2.609c-5.441-5.678-13.48,4.249-13.48,4.249l-3.777,5.678l-3.553,2.136l-1.652,4.721v4.733l-2.373,4.544
		l1.18,11.768l-1.18,8.274l-8.274-4.733l-9.927,7.094l-26.724,8.274V557.9l-0.059-0.012v-0.059l-10.883-2.125l-2.797,0.106
		l-10.163,0.366l-1.157-4.178h-0.047l-0.024-0.083l-4.226,0.224l-2.018,0.106l-2.738,0.142l1.652,5.914l0.012,0.047l-8.699,1.889
		l-4.946-3.777l2.113-3.045l2.361-4.733v-0.035l-0.437-3.399l-0.697-5.559l-0.519-4.013l-0.012-0.012v-0.024l-2.821-2.821
		l4.013-12.748l-0.012-0.012v-0.012l0.012-0.012l-9.938-13.008l-2.845-8.664l1.192,0.212l6.032-18.083l4.615,1.416v-1.771
		l-0.165-0.094v-0.059l-5.501-3.104l1.051-8.451l3.541-3.187l-1.416-3.199l0.708-3.187l6.386-3.907l-1.771-2.219l1.771-3.104h7.448
		l0.354-3.541l8.865-6.386l-0.708-7.094l2.136-4.261l-0.165-0.142v-0.012l-2.668-2.337l2.125-3.883l7.448,1.771l2.125-4.969
		l-0.165-0.13l0.012-0.024l-6.22-5.182l2.467-6.716h14.188l2.845-2.491v-10.281h-0.165v-0.153h-4.804v-9.431l-0.153-0.047v-0.106
		l-17.575-4.922v-7.33l-0.165,0.012v-0.165l-4.544,0.39l-0.012-3.458l-1.57-1.782l2.018-2.939l-0.094-0.071l0.118-0.165
		l-2.573-2.101l-0.012-0.012l1.145-4.745l-0.024-0.059v-0.012l0.047-0.165l-2.078-7.141l23.336-22.179l3.777-0.236l0.024-0.083
		l3.01,0.449v2.609l-1.959,4.592l10.399,22.12l26.487,7.566l11.579,0.236l0.142-0.13l2.703-2.703l7.554,0.472l18.65,9.443
		l-4.556,3.187l0.024,0.024l-0.165,0.118l11.355,7.566l-1.629,6.976v0.012l-0.012,0.012l-0.956,4.108l6.173-0.331l6.823-0.378
		l14.424,10.647l12.063-4.261l4.969,1.889l0.118-0.13h0.024l4.839-5.536l12.748,2.361l1.653,3.305h3.317v-0.13h0.13l9.467,7.33
		l-2.361,7.33L1349.105,435.177z"/>
	<path class="st3" d="M1153.72,566.103l-3.907,4.155l-3.423,3.647l-5.618-2.797l-0.059-0.035l-17.446,2.821l-1.641-6.327
		l-0.047,0.024v-0.012l-0.012-0.059l-2.125,0.944h-0.012l-6.091-5.158l-0.047-0.035l-14.66,0.236l-7.106,13.008v3.541
		l-14.176,12.299v1.889l-3.789,0.472l-6.079,4.45l-0.071,0.047l3.789,9.927l-10.612,7.542l-1.629-4.662l-0.035,0.012v-0.012
		l-0.024-0.035l-5.205,1.18l-4.958-1.9l-9.939,13.716l-3.954,0.708v-2.561l-0.059-0.035l-7.354-4.025l-4.238,3.081l8.983,7.094
		l-3.541,1.889l-3.305,15.368l-2.927,2.302l-0.047-0.024l-5.914-1.428l-4.969,3.789l-11.579-2.833v-3.789c0,0-7.566-6.15-8.51-6.15
		c-0.224,0-0.425,0.201-0.59,0.508c-0.012,0.012-0.024,0.024-0.035,0.047c-0.508,0.472-0.838,2.007-0.98,2.821l-26.534-25.13
		l-2.609-5.678l2.609-7.802l-3.081-1.889l3.081-4.733l-2.845-4.485l-2.361,2.597l-10.163-7.566l-9.939-8.51l-0.708-7.802
		l3.789-12.158l-6.386-2.975l-11.544,2.975l-0.177,0.118l-12.465-15.663l-0.13,0.236l-0.283-0.366l-2.313,4.367l-2.243-4.238
		l2.833-10.918h-0.437l0.035-0.13h-2.479l-2.786-8.026h12.76l26.959,6.74l0.708-7.802l3.199-3.553l-4.615-6.032l3.895-2.833
		l3.883-4.946l8.487,3.399l0.024-0.024l0.378,0.153l8.404-8.404l3.258,2.597l0.094-0.118l0.307,0.248l17.021-21.99h7.448v-0.012
		l6.645,1.582l19.7,22.155l0.165,0.189l14.188-15.25l14.896,15.604l7.802,0.354l11.355,6.74l4.958-7.448l9.573,4.969l7.46-7.448
		l-1.428-4.261h9.585l9.573-4.249l5.323-1.782l-1.782-2.125l2.491-1.416l3.376,3.706l0.165,0.189l2.007,0.331l1.027,3.388
		l0.118,0.024l0.047,0.165l8.735,1.558l2.845,8.664l0.012,0.035l9.915,12.984v0.012l-4.013,12.748l0.012,0.012v0.024l2.821,2.821
		l0.519,3.99l0.708,5.595l0.437,3.399v0.012l-2.373,4.721l-2.125,3.069l0.024,0.012l-0.012,0.024l4.969,3.789l8.687-1.877
		l0.118,1.995L1153.72,566.103z"/>
	<path class="st9" d="M1037.655,659.458l-13.68,14.813l-5.43-3.541l-16.549,4.013l0.319,0.496l-0.059,0.012l6.787,10.411l-1.794,1.9
		l-10.93,11.532h-5.677l0.366,1.381l0.083,0.342l-0.224,0.024l-8.274,0.944l-3.777,3.317l0.142,0.083l-0.106,0.094l3.659,2.302
		l-15.758,20.456l-14.424,3.777h-8.51c0,0-4.733,4.025-4.969,4.733c-0.236,0.708-4.025-1.18-4.025-1.18l-13.704,14.188l0.059,0.153
		l-0.024,0.024l2.833,6.858l6.232,6.232l-4.851,1.157l-4.249,1.653l-4.025-3.069l-1.889-5.678l-6.386-0.236l0.708,8.274h0.024
		l0.012,0.189l3.517-0.248v12.358l-2.609-0.236v6.846l-7.767,4.71v-2.396l-0.035,0.012v-0.189l-13.008,2.597l-2.833-5.914h-4.025
		l-7.424-5.618l0.035,0.189l-0.153-0.118l-0.012-0.059l-1.31-1.003l-5.489-2.054l1.157-4.155l-0.189-0.094l0.024-0.071l-6.15-3.081
		h-5.04v-4.556l-4.013-6.622l4.249-2.597l-3.635-3.635l6.858-9.136h2.691l2.609-3.777l-0.496-2.609l9.974-13.279l0.012-0.012
		l2.325-0.661l0.212-2.738l0.732-9.313h3.789l1.416-1.192l-1.889-5.902l2.833-1.18h3.081l3.777-1.664v-4.249l-2.361-1.664
		l-0.047,0.012l-0.024-0.012l-4.45,1.652l-3.281-2.361l-7.094-10.635l7.094-4.733v-8.274l-9.466-4.969l-2.597-5.194l-15.132-6.15
		l-14.188-10.647l-0.236-10.635l4.202-0.933l1.641,3.529h3.612l2.408-11.579l-0.094,0.106l0.024-0.106l-3.801,4.462h-0.012
		l-5.619-1.865v-6.858l-7.802-7.448l-14.66-11.933l-5.194-14.66V564.97l4.485-0.944l0.024-0.071l7.035,1.877l25.578-4.367
		l0.035-0.047l0.189,0.413l-0.059,0.083l4.603,9.927l8.038,0.354v3.765l0.13,0.142v0.354l6.374,6.74l5.241,2.833l9.797-1.109
		l27.526-3.14l2.845-18.803l5.666-3.895l-0.153-0.189l11.296-2.915l6.386,2.975l-3.789,12.158l0.708,7.802l9.939,8.51l10.163,7.566
		l2.373-2.597l2.833,4.497l-3.081,4.721l3.081,1.889l-2.597,7.814l2.597,5.666l26.723,25.307c0,0,0.024-0.212,0.094-0.531
		l0.177,0.165c0,0,0.271-1.995,0.803-2.998c0.012-0.024,0.024-0.035,0.035-0.047c0.094-0.094,0.201-0.142,0.307-0.142
		c0.944,0,8.51,6.15,8.51,6.15v3.789l11.591,2.833l4.958-3.789l5.914,1.428L1037.655,659.458z"/>
	<path class="st11" d="M892.707,693.464v4.249l-3.777,1.664h-3.081l-2.833,1.18l1.889,5.902l-1.416,1.192h-3.789l-0.732,9.419
		l-0.012,0.012l-2.443,3.258l-0.012,0.012l-2.703,0.767l-2.845,6.386h-2.361l-0.744,1.57l-1.617,3.399l0.236,1.251l-4.757,6.315
		h-2.101l-2.609,3.553l-2.833,4.958l0.661,0.661l-5.595,7.448h-4.615l-2.845,2.597h-10.741l2.325-10.942l-0.13-0.012l0.035-0.165
		l-11.733-0.932h-0.012l-0.224-4.804l-0.083-0.059v-0.106l-4.119-2.75l1.133-2.042h-0.189l0.094-0.177h-4.356l2.325-8.569
		c0,0-0.047,0.012-0.153,0.024l0.059-0.201c0,0-6.539,1.18-6.941,1.18c-0.39,0-2.278-1.652-2.278-1.652l-11.355,3.777
		c0,0-13.008,1.192-14.188,1.192s-7.33-1.9-7.33-1.9l-6.386,0.472l-1.889,2.372l-9.88-5.418l-0.012-0.012l-1.133-4.096h-0.035
		l-0.047-0.177l-15.38,0.236l-4.379-5.536l2.585-6.823l-0.142-0.059l0.047-0.106l-2.597-1.192l-4.497,3.553h-3.919l0.708-9.691
		l1.18-16.383l-0.047-0.012l0.012-0.189l-12.063-2.833l-2.361-9.23l-8.522,3.317l-9.455-6.858l-9.644-21.412l0.024-0.177h0.012
		l0.083-0.024l3.01-0.755l14.188-4.249l9.785-6.693l4.403-2.998l8.51,2.833l7.094-4.025l7.566,1.192l3.541-4.025l2.373,0.944
		l1.653-2.125l-2.597-15.368l5.666-2.136l5.205-1.889c0,0,6.386,4.969,7.094,4.497c0.708-0.472,8.274-13.716,8.274-13.716
		l1.416,1.416l7.354-1.381l0.212-0.035l-0.071-0.13v-0.012h0.012l-0.26-0.484l-2.986-5.524v-0.012l2.101-5.111v-0.012l0.024-0.071
		h1.18l3.553-5.3h7.802l2.125-11.249l12.771-2.833h8.451v10.977l5.194,14.66l14.66,11.933l7.802,7.448v6.858l5.678,1.889
		l0.012-0.024h0.012l0.047,0.024l3.73-4.379l-2.384,11.473h-3.47l-1.653-3.541l-0.059,0.012l-0.012-0.012l-4.261,0.944l0.236,10.635
		l14.188,10.647l15.132,6.15l2.609,5.194l9.455,4.969v8.274l-7.094,4.733l7.094,10.635l3.305,2.372l0.047-0.012l0.024,0.012
		l4.45-1.652L892.707,693.464z"/>
	<path class="st8" d="M731.588,752.14l-13.893,0.472v0.024h-0.059l-3.305,7.802l1.416,4.261l-9.455,13.952l-2.786,1.393
		l-0.047,0.024l-6.622,19.606l-9.407,0.932l-0.012,0.035h-0.047l-6.126,12.724l-6.811-1.877l0.012,0.047l-0.083-0.024l1.416,5.182
		l-9.396,2.125l-2.833-3.553l-10.647,3.553l-4.485-10.163l-4.497-3.789l2.136-7.566l-4.025-4.261h-6.15l1.416-8.747l3.553-1.416
		l-0.944-4.733h2.361l1.889-14.66l-4.013,2.125l-5.677-4.485l-0.236-8.274h2.125l3.789-5.441l-4.733-1.652l-4.686-1.653
		l-10.21-2.136l-1.18-4.013l3.317-11.355l8.074-2.125l7.047-5.678l-2.597-5.677h-6.858l-7.33-13.244l3.081-3.069l-1.416-3.541
		v-4.733l-5.925,1.18l-1.18-4.249h-1.416l-3.305-7.814l9.219-6.61l-2.125-2.136l4.733-4.497l7.082,1.428l0.472-3.789l-2.597-2.243
		l2.125-1.535h2.136l5.194-1.889l0.944-2.136h12.618v-10.47l0.106-0.059l5.111,0.708l10.163,6.858h3.789l-1.653-7.33l5.205,2.125
		l6.374,6.386l6.303-1.57l-0.012,0.047l0.047,0.106l-0.012,0.094l9.691,21.518l9.467,6.858l8.51-3.317l2.361,9.23l12.016,2.821
		l-1.169,16.195l-0.708,9.856l0.012,0.035h-0.083l0.094,0.177l1.57,3.14c0,0-6.386,8.747-7.33,9.455
		c-0.944,0.708,4.957,1.18,4.957,1.18L731.588,752.14z"/>
	<path class="st5" d="M897.275,884.954l3.376,12.394l-5.194,0.236v-4.957l-4.261-1.192l-0.047,0.024l-5.63,3.281l-4.485-2.833
		l-0.059,0.024l-6.327,2.113l-3.081-6.634l-0.047,0.035l-8.699,4.462c0,0-2.833-1.652-3.541-2.361c-0.13-0.13-0.378-0.118-0.685,0
		c-0.024,0.012-0.059,0.024-0.094,0.035c-0.035,0.024-0.083,0.047-0.13,0.071c-0.319,0.142-0.685,0.366-1.062,0.637
		c-0.118,0.094-0.248,0.177-0.378,0.272c-0.283,0.212-0.555,0.425-0.814,0.637c-0.094,0.083-0.189,0.165-0.283,0.236
		c-0.637,0.531-1.098,0.968-1.098,0.968l-1.192,11.591l-8.463,4.237h-5.902l-4.025-4.497l-5.43-2.361l2.833-6.858l-29.32-0.236
		l0.236-4.261l1.18-9.927l4.733-13.716l-15.132-5.678l2.597-9.927l-0.059,0.024l-4.167,1.924l-1.924,0.885l-9.419-1.121
		l-0.508-0.059l-0.012,0.035l-0.047-0.012l-0.035,0.153l-1.145,4.344l-3.541,3.777l-6.657,2.325l-2.75,0.956v-4.013l-0.047,0.024
		l-10.824,4.226l0.307-6.681l0.165-3.482l-0.059,0.024l-15.073,4.946l-2.373-5.205l-7.094,0.708l-0.012,0.024h-0.035l-5.205,7.094
		l2.384,1.369l2.585,1.475l-2.136,2.125l0.472,4.969l5.678,3.305l8.038,2.597l2.125,4.733l4.497,3.553l2.774-0.673l0.024-0.012
		l2.172-0.508l4.485,4.025l-7.554,4.013l-4.214,2.113l-0.047,0.024l-3.045,4.214l-1.57-0.873l-2.656-1.475l-0.059,0.024
		l-7.047,4.001l-0.047,0.024v3.506l-7.047-1.641v0.035l-0.047-0.012v6.15l-9.891,7.531l-19.854-10.399l-0.024,0.035l-0.024-0.012
		l-5.642,7.991l-1.877-3.281l-13.952-3.553l-1.416-4.485l-11.343,1.889l-6.622-3.317l-0.059,0.035l-6.563,3.281l-0.012-0.024
		l-4.214-3.978l-0.271-0.26l-1.417-4.485l4.025-11.119h6.15c0,0-1.664-3.305-2.136-4.485s-5.441-2.373-5.441-2.373l6.87-3.069
		v-8.983l3.777-2.372l10.883-2.833l1.18-6.15l6.61-11.815l-7.554-4.261l-0.944,4.261l-2.845-1.428l-1.416-4.249h-4.497l3.659-8.038
		l-5.076-1.9v-3.541h10.175v-4.497l9.455-2.125l-0.012-0.024l0.071-0.012l-1.405-5.146l6.775,1.865l0.024-0.035l0.035,0.012
		l6.138-12.736l9.407-0.956l0.012-0.012l0.059-0.012l6.61-19.618l2.786-1.393l0.059-0.035l6.468-9.549l2.986-4.403l-1.416-4.249
		l3.305-7.779l13.893-0.472v-0.024l0.059-0.012l-6.15-23.879c0,0-5.902-0.472-4.958-1.18c0.944-0.708,7.33-9.455,7.33-9.455
		l-1.546-3.104h3.942l4.497-3.553l2.455,1.121l-2.55,6.752l0.106,0.13l-0.012,0.035l4.485,5.677l15.333-0.236l1.133,4.084
		l0.035,0.012l0.012,0.012l0.035,0.153l9.939,5.43l1.889-2.361l2.833-0.212l3.553-0.26c0,0,6.15,1.889,7.33,1.889
		s14.188-1.18,14.188-1.18l11.343-3.789c0,0,1.9,1.664,2.29,1.664c0.366,0,5.819-0.98,6.787-1.157l-2.314,8.546h0.142l-0.047,0.177
		h4.308l-1.086,1.948l0.142,0.094l-0.047,0.083l4.167,2.774l0.236,4.851l0.071,0.012l0.012,0.165l11.697,0.932v0.012l-2.325,10.942
		h0.13l-0.035,0.177h10.871l2.845-2.609h5.666l0.956-2.597l2.833,1.18l3.931,6.445v4.733h0.153v0.177h5.205l5.961,2.974
		l-1.157,4.178l0.189,0.071l-0.024,0.106l5.677,2.125l1.157,0.885l1.039,5.796l1.18,2.136l-0.708,6.15l-6.386,4.485l-6.858,17.977
		l1.9,4.249l-2.609,2.609l-2.113,4.698l-3.671-0.224v0.024l-0.13-0.012l1.664,7.094v3.541l0.118-0.024v0.024l3.99-1.18h0.012
		l9.348-0.708l5.678,4.969l0.118-0.012h0.012l11.225-1.641l1.889,3.305l-2.833,4.733l4.485,1.889v4.733l-2.833,0.708l3.671,3.423
		l14.035,13.09l-7.661,7.047l-1.051,0.968l-0.012,0.059l-1.653,7.271l0.012,0.012l-0.012,0.047L897.275,884.954z"/>
	<path class="st11" d="M939.615,990.301v6.339l-4.898,3.978l-0.024,0.047l-0.047,0.035l-5.182,15.085l-8.227,7.059l0.024,0.012
		l-0.083,0.071l0.72,0.602l-6.398-4.379l-14.188-0.708l-14.896-7.33l-6.15,10.871l-20.338,5.205l-2.125-3.069l-26.723,1.653
		l-3.069,10.163l-13.48,5.442l-12.052-4.025l-8.994,2.136c0,0-13.008-15.84-13.952-16.561c-0.944-0.708-4.367-4.013-4.367-4.013
		h-7.92c0,0-3.081-3.317-4.261-4.025c-1.18-0.708-5.678-1.18-5.678-1.18l-5.194-8.038l-1.9-14.188l-7.33-19.393l5.914-5.678
		l-19.157-3.541l-6.858-4.013l-8.983-4.497l-9.691-1.416l-3.872,2.113v0.012l-10.789,5.914l-23.406-8.746l-1.416-4.497h-2.845
		l-3.553-3.553l-1.889-9.455l-3.305-3.069v-15.368l-4.261-11.827l0.059-0.024l6.563-3.281l6.622,3.305l11.355-1.889l1.416,4.485
		l13.952,3.553l1.889,3.305l0.035-0.047l0.024,0.024l5.642-8.003l19.842,10.399l0.035-0.035l0.012,0.012l9.927-7.566v-6.114
		l7.047,1.641v-0.035l0.047,0.012v-3.541l7.047-4.001l2.679,1.499l1.57,0.862l0.035-0.035l0.024,0.012l3.069-4.249l4.261-2.125
		l7.507-4.001l0.059-0.024l-4.485-4.025l-2.231,0.531l-0.024,0.012l-2.715,0.637l-4.497-3.541l-2.125-4.733l-8.038-2.597
		l-5.677-3.317l-0.472-4.958l2.125-2.125l-2.561-1.464l-2.396-1.381l5.182-7.07l7.059-0.708l2.361,5.205l0.059-0.024l15.073-4.946
		l-0.165,3.458l-0.307,6.716l10.883-4.261v4.025l2.797-0.98v-0.012l6.657-2.325l0.047-0.024l3.553-3.777l1.133-4.332l0.46-0.083
		l9.466,1.121l0.047-0.024l1.924-0.885l4.167-1.924l-2.597,9.927l15.132,5.677l-4.721,13.716l-1.18,9.927l-0.236,4.261l29.308,0.236
		l-2.833,6.858l5.441,2.361l4.025,4.497h5.902l0.047-0.024l8.463-4.237l0.059-0.024l1.18-11.579c0,0,0.449-0.413,1.051-0.956
		c0.094-0.071,0.189-0.154,0.283-0.236c0.26-0.212,0.531-0.425,0.814-0.637c0.13-0.094,0.26-0.177,0.378-0.272
		c0.378-0.271,0.744-0.496,1.062-0.637c0.047-0.024,0.094-0.047,0.13-0.071c0.035-0.012,0.071-0.024,0.094-0.035
		c0.283-0.094,0.496-0.106,0.626,0.024c0.708,0.708,3.553,2.361,3.553,2.361l0.047-0.024l8.699-4.462l3.069,6.622l0.059-0.024
		l6.327-2.113l4.497,2.845l0.047-0.035v0.012l5.63-3.293l4.249,1.18v4.969l5.205-0.236v10.163l5.441,8.758l2.857,0.401l3.754,0.543
		v20.102l-4.013,10.871l8.274,4.261v4.721l15.132,7.802v2.278h-2.066l-0.047,0.094h-0.012l-2.55,4.875l-0.047,0.083l7.318,2.609
		l-1.416,7.33h3.081v8.038H939.615z"/>
	<path class="st6" d="M1037.938,792.355l-3.506,8.912l-2.845,9.466l-1.475,1.287l-2.561,2.255v6.858l-7.07,9.927l0.271,0.177
		l-0.094,0.13c0,0-0.012,0-0.035,0l-0.083-0.047c0,0-2.833,0-3.777,0c-0.956,0,0,1.889,0,1.889h-4.733l-4.497,5.902l-7.212,0.944
		v-2.538h-0.118v-0.059h-4.013l-2.609,3.317l-8.51,10.399l-10.635,3.317c0,0-5.441-0.472-7.33,0
		c-1.83,0.449-10.009,3.765-10.612,4.001h-0.012l-5.335-3.954l-0.035,0.012l-0.083-0.059l-14.896,6.15h-8.994l-19.57,8.251
		l-13.999-13.055l-3.671-3.423l2.845-0.708v-4.733l-4.497-1.889l2.833-4.733l-1.889-3.305l-0.118,0.012l-11.225,1.641h-0.012
		l-5.666-4.969l-0.13,0.012l-9.325,0.696l-0.024,0.012h-0.106l-3.895,1.157v-3.529l-1.652-7.07l3.659,0.224l0.012-0.024l0.106,0.012
		l2.136-4.733l2.597-2.597l-1.889-4.249l6.858-17.977l6.386-4.497l0.708-6.138l-1.192-2.136l-1.003-5.666l7.436,5.619h4.013
		l2.845,5.914l12.96-2.597v2.408l0.035-0.024v0.212l7.802-4.733v-6.858l2.609,0.236v-12.536h-0.035v-0.177l-3.529,0.236
		l-0.696-8.097l6.386,0.236l1.889,5.677l4.025,3.081l4.261-1.664l4.958-1.18l-0.153-0.153l0.118-0.024l-6.386-6.386l-2.774-6.704
		l13.692-14.164c0,0,3.777,1.9,4.013,1.192c0.236-0.708,4.969-4.733,4.969-4.733h8.51l14.424-3.789l15.84-20.562l-0.118-0.071
		l0.083-0.118l-3.635-2.278l3.671-3.211l8.274-0.944l0.248-0.035l3.281,12.288l0.177,0.142l0.047,0.189l7.507,5.914l-5.607,7.236
		l0.307,0.212l-0.083,0.118l5.677,3.895l3.069-2.007l7.011,0.472l1.275,2.75h0.083l0.142,0.319l2.845-0.236l2.597,1.664l5.654-1.098
		v0.012l-3.045,4.78l0.366,8.758l1.523,36.166l0.224,0.118l0.012,0.201l10.399,5.914L1037.938,792.355z"/>
	<path class="st2" d="M1115.335,960.237l-1.629,3.494h-6.622l-6.386,12.288l-19.629,24.363l-31.917-1.653v5.666l-3.305-0.472
		l-1.664,7.802l-34.514-4.485l-7.566,10.399l7.566,1.18l-2.609,3.081h-9.691l-6.622,4.485l-7.566,15.84l-3.317,1.664l-5.43-4.025
		l-14.896,2.125l-14.66-4.485l-7.566-1.417l-15.356-12.653h-0.012l-0.685-0.578l8.192-7.023l0.012-0.047l0.047-0.035l5.182-15.085
		l4.922-3.978v-0.047l0.059-0.047v-6.386h-3.305v-8.038h-3.081l1.428-7.33l-7.342-2.597l2.561-4.875h2.113v-0.094h0.059v-2.361
		l-15.132-7.802v-4.733l-8.274-4.249l4.013-10.883v-20.102l-3.73-0.531l-2.88-0.413l-5.442-8.746v-10.163l-3.352-12.311
		l-0.189-0.685l1.641-7.283l1.051-0.956l7.696-7.082l-0.024-0.035l0.035-0.024l0.047-0.024l0.071,0.071l19.618-8.274h8.994
		l14.861-6.138l5.347,3.954c0,0,0.012,0,0.024-0.012h0.012l0.083,0.071c0,0,8.758-3.553,10.647-4.025s7.33,0,7.33,0l10.635-3.305
		l8.522-10.411l2.597-3.305h3.895v2.549l0.118-0.012v0.059l7.33-0.944l4.497-5.914h4.733c0,0-0.944-1.889,0-1.889h3.742l5.619,3.742
		l3.517,2.349l6.858-6.138l5.076,3.907l-7.967,17.351l0.118,0.118l-0.059,0.13l2.774,2.538l-0.236,8.097l0.071,0.106l-0.012,0.142
		l1.594,2.491v9.785l0.071,0.071v0.189l6.291,6.752l9.785,10.505l6.15-5.205l4.721-0.944l3.246,2.55v3.352h-9.219l0.13,0.248h-0.059
		l3.954,7.46l0.236,5.052l0.047,0.035l0.012,0.224l6.15,2.833h4.025l5.465,8.038h5.642l1.334,3.565l-4.474,4.226l0.083,0.236
		l-0.012,0.012l5.666,16.797h9.632v4.71h0.071v0.248h1.523l-1.83,7.082l0.106,0.094l-0.036,0.153l7.802,6.622l4.969-3.305
		L1115.335,960.237z"/>
	<path class="st3" d="M1207.981,843.358c0,0-1.653,13.008-2.597,13.48c-0.944,0.472-10.647,3.541-10.647,3.541l-3.541,8.038
		l-4.958,2.609l-3.317,8.51l-27.668,2.833l-28.376,24.835l-11.343,29.792l1.18,23.643l-1.44-0.649l-5.89-2.656l-4.969,3.305
		l-7.696-6.527l1.853-7.177h-0.13l0.071-0.248h-1.594v-4.71h-0.071v-0.26h-9.691l-5.595-16.549l4.474-4.237l-0.083-0.224
		l0.023-0.024l-1.416-3.789h-5.642l-5.477-8.038h-4.025l-6.091-2.809l-0.224-4.981l-0.059-0.106v-0.142l-3.895-7.318h9.16v-3.553
		l-0.071-0.047v-0.201l-3.305-2.597l-4.733,0.944l-6.15,5.205l-9.644-10.364l-6.362-6.834v-9.75l-0.071-0.106v-0.142l-1.582-2.491
		l0.224-8.133l-0.059-0.071v-0.177l-2.715-2.491l7.979-17.363l-0.13-0.106l0.071-0.142l-5.205-4.025l-6.858,6.15l-3.305-2.195
		l-5.642-3.777l6.988-9.797v-6.858l2.561-2.255l1.475-1.298l2.833-9.455l3.553-8.983l-0.224-0.236l0.036-0.071l-3.541-3.789
		l2.833-12.051l1.889,0.472l3.081-7.094v-3.789l5.914-4.485v-3.553l2.597-5.442l8.038-0.944l8.983,0.944l4.969-0.708l-1.18-5.43
		l1.889-0.472l5.453-1.653l5.382,6.114v4.733l6.386,6.622l0.035,0.024l4.45,3.293v3.541l0.047,0.012v0.012l3.281,0.696l2.585,2.597
		l8.51,8.983l0.024-0.012l0.024,0.024l4.71-3.057l4.238,5.135l3.541,4.296l3.777,4.485l-3.777,1.664l0.838,1.015l1.287,1.582
		l0.023-0.012l0.024,0.035l3.293-1.889l3.281,5.17l0.024-0.012l0.024,0.035l5.205-3.777l6.138-2.136l1.204-1.062l0.165-0.012v-0.142
		l0.767-0.673l-0.767-1.853v-5.04l5.725-7.059l2.089,1.157l0.047,0.024l13.433,0.944l4.226,10.057l0.744,1.747l0.036,0.024
		l3.27,2.821l4.013,7.554l12.063,9.939l-3.305,5.205l1.653,2.125l0.012-0.024l0.036,0.047l-3.081,4.249l12.536,7.566l7.33,5.914
		L1207.981,843.358z"/>
	<path class="st5" d="M1246.013,745.919c0.472,1.653,0.472,1.653,0.472,1.653l-27.432,45.881l-10.163,5.43l4.721,10.411
		l-4.721,2.125l-8.995-7.094l-12.276,14.873l-1.629-2.089l3.317-5.194l-12.063-9.939l-4.013-7.566l-3.317-2.833l-0.744-1.771
		l-4.214-10.057h-0.047v-0.012l-13.48-0.956l-2.089-1.157l-0.035-0.024l-5.689,7.011l-1.405,1.735l1.405,3.458v2.384l-0.236,0.212
		l-1.169,1.051l-6.15,2.125l-5.182,3.765l-3.281-5.17l-0.024,0.012l-0.023-0.024l-3.293,1.877l-1.275-1.57l-0.826-1.003l3.777-1.653
		l-3.777-4.497l-3.577-4.332l-4.226-5.123l-0.024,0.012l-0.024-0.035l-4.71,3.069l-8.487-8.959l-2.597-2.597l-0.036-0.012
		l-0.012-0.012l-3.27-0.696v-3.541l-4.497-3.305l-6.386-6.622v-4.733l-5.394-6.138h-0.024l-0.024-0.024l-5.477,1.652l-1.889,0.472
		l1.18,5.441l-4.958,0.708l-8.994-0.944l-8.038,0.944l-2.597,5.441v3.541l-5.914,4.497v3.777l-3.069,7.094l-1.9-0.472l-2.833,12.063
		l-10.187-5.796l-1.511-35.954l-0.378-8.77l3.317-5.205l-0.496,0.094l0.271-0.413l-6.15,1.18l-2.597-1.653l-2.762,0.236h-0.012
		l-1.263-2.75h-0.083v-0.012l-0.142-0.307l-7.094-0.472l-3.069,2.007l-5.371-3.695l5.595-7.212l-0.295-0.236l0.071-0.094
		l-7.625-6.008l-3.376-12.63h-0.012l-0.319-1.18h5.677l10.942-11.544l1.83-1.936l-0.307-0.472l0.035-0.035l-6.763-10.387
		l16.49-4.001l5.441,3.541l14.188-15.368l-0.047-0.024l12.949-15.722l7.33,2.833l3.081,4.025l13.94,7.566l1.027,2.172l7.259,15.321
		l26.003,5.205l24.351-1.652l2.136-5.914l4.214-1.712l0.803-0.319l3.73-1.523l15.132,4.497l4.261,3.553h8.274l10.635-9.939
		l21.282-4.249l-0.189-0.791l0.26-0.059l-0.803-3.222l5.701-7.991h2.939l-0.98,3.895h0.142l-0.213,0.826h7.566v-0.826h0.071v-6.315
		l8.204-6.091l-0.307-0.555l0.378-0.283l5.442,9.927h17.729l4.733,13.48l-13.952,3.317l-18.673,25.059l8.747,14.424l10.647,17.493
		C1242.235,725.818,1245.54,744.267,1246.013,745.919z"/>
</g>
</svg>
